<?xml version="1.0" encoding="utf-8"?>
<!-- Generator: Adobe Illustrator 24.2.0, SVG Export Plug-In . SVG Version: 6.00 Build 0)  -->
<svg version="1.1" id="Layer_1" xmlns="http://www.w3.org/2000/svg" xmlns:xlink="http://www.w3.org/1999/xlink" x="0px" y="0px"
	 viewBox="0 0 841.89 595.28" style="enable-background:new 0 0 841.89 595.28;" xml:space="preserve">
<style type="text/css">
	.st0{fill:#FFFFFF;}
	.st1{fill:#00BDFF;}
	.st2{fill:#FFFFFF;stroke:#FFFFFF;stroke-width:2;stroke-miterlimit:10;}
	.st3{fill:#FFFFFF;stroke:#FFFFFF;stroke-miterlimit:10;}
</style>
<g>
	<path class="st0" d="M120.13,341.48c-2.59,0-4.78-0.73-6.51-2.17c-2.03-1.69-3.26-4.19-3.64-7.42l-3.36-28.86
		c-0.39-3.32,0.27-6.08,1.94-8.2c1.68-2.12,4.19-3.38,7.48-3.77l12.44-1.45c1.6-0.19,3.09-0.28,4.44-0.28
		c0.48,0,0.93,0.01,1.37,0.03c2.12,0.11,4.13,0.59,5.95,1.42c1.54,0.69,2.98,1.66,4.26,2.86c1.31,1.23,2.37,2.66,3.17,4.24
		c0.8,1.58,1.31,3.3,1.52,5.12c0.33,2.81-0.05,5.43-1.09,7.79c2.79,2.4,4.5,5.72,4.98,9.81c0.38,3.29-0.13,6.43-1.54,9.32
		c-1.42,2.92-3.57,5.24-6.37,6.88l-0.09,0.05c-1.57,0.88-3.38,1.59-5.38,2.09c-1.74,0.44-3.78,0.8-6.06,1.06l-11.73,1.37
		C121.3,341.45,120.7,341.48,120.13,341.48z"/>
	<path class="st0" d="M132.93,295.33c0.37,0,0.72,0.01,1.06,0.03c1.37,0.07,2.63,0.37,3.77,0.89c0.97,0.44,1.85,1.03,2.65,1.78
		c0.79,0.75,1.43,1.6,1.92,2.56c0.48,0.96,0.79,2,0.92,3.12c0.45,3.84-1.15,6.88-4.78,9.1c5.23,1.02,8.12,3.85,8.66,8.49
		c0.25,2.15-0.07,4.15-0.97,5.99c-0.9,1.85-2.24,3.29-4.01,4.33c-1.11,0.63-2.42,1.13-3.91,1.5c-1.5,0.38-3.26,0.68-5.28,0.92
		l-11.73,1.37c-0.38,0.04-0.74,0.07-1.08,0.07c-1.16,0-2.05-0.26-2.68-0.78c-0.81-0.68-1.32-1.84-1.51-3.5l-3.36-28.86
		c-0.2-1.69,0.03-2.95,0.69-3.78c0.66-0.83,1.81-1.34,3.47-1.53l12.44-1.45C130.56,295.41,131.81,295.33,132.93,295.33
		 M121.64,312.43l7.12-0.83c1.94-0.23,3.41-0.58,4.43-1.07c1.01-0.49,1.74-1.28,2.18-2.38c0.35-0.78,0.47-1.63,0.37-2.54
		c-0.23-1.94-1.07-3.14-2.52-3.62c-0.86-0.28-1.96-0.42-3.3-0.42c-0.93,0-1.97,0.07-3.12,0.2l-6.31,0.74L121.64,312.43
		 M123.6,329.22l8.35-0.97c5.26-0.61,7.66-2.81,7.22-6.6c-0.23-1.94-1.07-3.26-2.53-3.98c-1.02-0.5-2.33-0.74-3.94-0.74
		c-0.71,0-1.48,0.05-2.31,0.14l-8.09,0.94L123.6,329.22 M132.93,283.33c-1.58,0-3.3,0.11-5.14,0.32l-12.44,1.45
		c-6.14,0.71-9.64,3.66-11.49,6.01c-1.86,2.35-3.92,6.44-3.2,12.62l3.36,28.86c0.7,6,3.52,9.48,5.76,11.34
		c1.95,1.62,5.33,3.55,10.34,3.55c0.8,0,1.63-0.05,2.47-0.15l11.73-1.37c2.57-0.3,4.81-0.69,6.83-1.21
		c2.51-0.63,4.82-1.53,6.85-2.68l0.09-0.05l0.09-0.05c3.79-2.22,6.81-5.48,8.73-9.43c1.91-3.93,2.62-8.18,2.1-12.63
		c-0.47-4.06-1.92-7.65-4.18-10.6c0.47-2.23,0.58-4.57,0.3-7c-0.29-2.51-1.01-4.91-2.12-7.12c-1.11-2.21-2.6-4.2-4.41-5.91
		c-1.76-1.65-3.75-2.99-5.92-3.97c-2.51-1.14-5.24-1.8-8.11-1.94C134.05,283.34,133.49,283.33,132.93,283.33L132.93,283.33z"/>
</g>
<g>
	<path class="st0" d="M161.99,344.64c-2.91,0-5.31-0.83-7.14-2.47c-2-1.8-3.12-4.39-3.32-7.7l-1.72-29.01
		c-0.12-2,0.14-3.81,0.75-5.36c0.81-2.05,2.28-3.68,4.23-4.72c1.45-0.77,3.19-1.22,5.15-1.34l20.64-1.22
		c0.28-0.02,0.55-0.02,0.8-0.02c2.43,0,4.5,0.68,6.15,2.02c1.94,1.57,3.1,3.85,3.25,6.43c0.15,2.59-0.72,5-2.47,6.79
		c-0.67,0.69-1.44,1.25-2.3,1.69c0.32,0.2,0.63,0.41,0.92,0.65c1.93,1.56,3.08,3.83,3.23,6.38c0.15,2.5-0.68,4.86-2.34,6.64
		c-0.57,0.61-1.37,1.29-2.48,1.84c2.22,0.28,3.76,1.18,4.71,1.95c1.97,1.6,3.13,3.92,3.28,6.53c0.15,2.58-0.73,5-2.49,6.81
		c-1.14,1.18-3.23,2.63-6.68,2.83l-21.24,1.26C162.62,344.63,162.3,344.64,161.99,344.64z"/>
	<path class="st0" d="M181.41,298.8c1.02,0,1.82,0.23,2.37,0.68c0.64,0.52,0.98,1.22,1.04,2.12c0.05,0.91-0.21,1.66-0.78,2.25
		c-0.57,0.59-1.48,0.92-2.73,0.99l-17.61,1.04l0.56,9.48l16.21-0.96c0.15-0.01,0.29-0.01,0.43-0.01c0.98,0,1.75,0.22,2.29,0.66
		c0.62,0.5,0.96,1.19,1.01,2.07c0.05,0.88-0.2,1.61-0.74,2.2c-0.55,0.59-1.42,0.92-2.64,0.99l-16.21,0.96l0.65,10.98l18.21-1.08
		c0.15-0.01,0.29-0.01,0.43-0.01c1.02,0,1.82,0.24,2.4,0.7c0.66,0.53,1.01,1.27,1.07,2.22c0.05,0.91-0.21,1.67-0.8,2.28
		c-0.59,0.61-1.5,0.95-2.73,1.02l-21.24,1.26c-0.21,0.01-0.42,0.02-0.61,0.02c-1.39,0-2.43-0.31-3.13-0.93
		c-0.79-0.71-1.24-1.91-1.34-3.59l-1.72-29.01c-0.07-1.12,0.05-2.05,0.34-2.78c0.29-0.73,0.78-1.28,1.47-1.65
		c0.69-0.37,1.59-0.58,2.7-0.65l20.64-1.22C181.11,298.81,181.26,298.8,181.41,298.8 M181.41,286.8c-0.38,0-0.77,0.01-1.16,0.03
		l-20.64,1.22c-2.83,0.17-5.39,0.85-7.61,2.03c-3.23,1.72-5.65,4.41-7,7.81c-0.95,2.37-1.34,5.04-1.17,7.93l1.72,29.01
		c0.36,6.16,3.08,9.82,5.3,11.81c2.03,1.82,5.61,4,11.14,4c0.43,0,0.88-0.01,1.32-0.04l21.24-1.26c5.37-0.32,8.74-2.7,10.63-4.64
		c2.94-3.03,4.42-7.06,4.17-11.34c-0.23-3.84-1.79-7.3-4.44-9.89c0.97-2.17,1.41-4.58,1.27-7.06c-0.14-2.28-0.75-4.44-1.8-6.35
		c1.76-2.66,2.61-5.84,2.41-9.17c-0.25-4.27-2.19-8.08-5.46-10.73C189.44,288.63,186.19,286.8,181.41,286.8L181.41,286.8z"/>
</g>
<g>
	<path class="st0" d="M207.71,336.39c-1.72,0-3.55-0.18-5.42-0.52c-4.79-0.89-8.73-2.63-11.71-5.19c-2.28-1.99-4-4.39-5.11-7.18
		c-1.19-2.96-1.54-5.86-1.03-8.59c0.46-2.48,1.79-4.57,3.85-6.02c0.53-0.38,1.09-0.69,1.67-0.94c-0.16-0.29-0.32-0.59-0.47-0.9
		c-1.37-2.84-1.73-6.04-1.09-9.5c0.61-3.32,2.11-6.16,4.44-8.45c2.27-2.23,5.19-3.72,8.65-4.42c1.47-0.3,3.03-0.45,4.64-0.45
		c1.75,0,3.6,0.18,5.51,0.53c2.97,0.55,5.57,1.44,7.73,2.66c2.25,1.26,4.12,2.79,5.54,4.55c1.46,1.8,2.48,3.7,3.02,5.63
		c0.57,2.04,0.68,4.04,0.33,5.95c-0.44,2.36-1.69,4.41-3.63,5.93c-0.11,0.09-0.22,0.17-0.33,0.25c0.88,1.29,1.56,2.7,2.02,4.22
		c0.72,2.37,0.81,5.02,0.28,7.88c-0.64,3.44-2.14,6.44-4.46,8.89c-2.32,2.45-5.31,4.15-8.91,5.04
		C211.5,336.17,209.64,336.39,207.71,336.39z"/>
	<path class="st0" d="M206.14,290.22c1.39,0,2.86,0.14,4.42,0.43c2.33,0.43,4.3,1.1,5.89,1.99c1.59,0.89,2.87,1.93,3.81,3.09
		c0.95,1.17,1.58,2.33,1.9,3.48c0.32,1.15,0.39,2.23,0.21,3.23c-0.17,0.92-0.65,1.68-1.43,2.3c-0.61,0.48-1.27,0.71-1.99,0.71
		c-0.21,0-0.42-0.02-0.64-0.06c-0.88-0.16-1.51-0.51-1.89-1.03c-0.38-0.53-0.74-1.34-1.09-2.44c-0.43-1.56-1.05-2.84-1.87-3.82
		c-0.82-0.98-2.3-1.67-4.44-2.07c-0.72-0.13-1.4-0.2-2.04-0.2c-1.13,0-2.13,0.21-3.01,0.62c-1.38,0.65-2.18,1.58-2.41,2.81
		c-0.14,0.76-0.06,1.46,0.26,2.09c0.31,0.63,0.79,1.21,1.45,1.74c0.65,0.53,1.33,0.98,2.03,1.34c0.7,0.36,1.87,0.92,3.5,1.67
		c2.05,0.9,3.89,1.81,5.51,2.74c1.62,0.93,2.97,1.93,4.03,3.02c1.06,1.09,1.81,2.36,2.24,3.81c0.44,1.45,0.48,3.13,0.12,5.05
		c-0.43,2.3-1.4,4.26-2.92,5.87c-1.52,1.61-3.52,2.73-6,3.34c-1.27,0.32-2.63,0.47-4.08,0.47c-1.36,0-2.81-0.14-4.32-0.42
		c-3.75-0.69-6.71-1.98-8.89-3.84c-1.54-1.34-2.69-2.96-3.46-4.86c-0.77-1.9-1-3.66-0.7-5.26c0.17-0.93,0.65-1.67,1.42-2.22
		c0.58-0.41,1.22-0.61,1.92-0.61c0.24,0,0.49,0.02,0.74,0.07c0.81,0.15,1.45,0.54,1.92,1.16c0.47,0.62,0.8,1.48,1.01,2.57
		c0.26,1.3,0.6,2.41,1.01,3.32c0.41,0.92,1.08,1.73,2,2.45c0.92,0.72,2.21,1.23,3.87,1.54c0.79,0.15,1.54,0.22,2.25,0.22
		c1.34,0,2.55-0.26,3.61-0.78c1.62-0.8,2.58-1.99,2.88-3.58c0.23-1.26,0.04-2.36-0.58-3.29c-0.62-0.93-1.51-1.71-2.65-2.35
		c-1.14-0.64-2.69-1.38-4.64-2.23c-2.61-1.14-4.76-2.32-6.44-3.51c-1.68-1.2-2.93-2.63-3.73-4.31c-0.81-1.68-1.01-3.61-0.6-5.81
		c0.39-2.09,1.3-3.84,2.74-5.26c1.44-1.41,3.32-2.36,5.65-2.83C203.78,290.33,204.93,290.22,206.14,290.22 M206.14,278.22
		c-2.01,0-3.97,0.19-5.84,0.57c-4.62,0.94-8.54,2.96-11.65,6.02c-3.19,3.12-5.31,7.15-6.14,11.64c-0.6,3.22-0.52,6.38,0.2,9.33
		c-2.15,2.18-3.6,4.96-4.17,8.03c-0.72,3.88-0.26,7.89,1.37,11.93c1.47,3.67,3.73,6.85,6.71,9.44l0.03,0.02l0.03,0.02
		c3.79,3.26,8.68,5.46,14.52,6.54c2.23,0.41,4.42,0.62,6.51,0.62c2.41,0,4.76-0.28,6.97-0.83c4.73-1.17,8.71-3.44,11.83-6.75
		c3.13-3.31,5.15-7.32,6-11.92c0.71-3.81,0.56-7.41-0.44-10.71c-0.14-0.48-0.3-0.94-0.48-1.41c1.29-1.82,2.16-3.9,2.58-6.16
		c0.52-2.82,0.37-5.73-0.45-8.66c-0.77-2.73-2.16-5.35-4.13-7.78c-1.9-2.35-4.35-4.37-7.26-6c-2.74-1.54-5.96-2.65-9.58-3.32
		C210.48,278.43,208.26,278.22,206.14,278.22L206.14,278.22z"/>
</g>
<g>
	<path class="st0" d="M239.36,345.63c-0.64,0-1.3-0.06-1.95-0.19c-2.77-0.53-5.09-2.1-6.53-4.42c-1.39-2.23-1.79-4.93-1.2-8.02
		l4.14-21.69l-2.5-0.48c-2.81-0.54-4.98-1.78-6.43-3.71c-1.54-2.05-2.12-4.61-1.63-7.21c0.52-2.7,2.06-4.91,4.35-6.22
		c1.42-0.81,3.03-1.23,4.8-1.23c0.76,0,1.55,0.08,2.36,0.23l24.45,4.66c2.83,0.54,5,1.79,6.46,3.73c1.55,2.05,2.13,4.62,1.64,7.23
		c-0.5,2.64-2.02,4.82-4.26,6.15c-1.43,0.84-3.07,1.27-4.88,1.27c-0.77,0-1.59-0.08-2.42-0.24l-2.5-0.48l-4.14,21.69
		c-0.59,3.11-1.96,5.48-4.06,7.03C243.4,344.98,241.43,345.63,239.36,345.63z"/>
	<path class="st0" d="M232.41,298.47c0.38,0,0.8,0.04,1.24,0.13l24.45,4.66c1.33,0.25,2.26,0.74,2.8,1.45
		c0.54,0.71,0.71,1.54,0.53,2.49c-0.18,0.95-0.65,1.65-1.42,2.1c-0.49,0.29-1.1,0.44-1.82,0.44c-0.4,0-0.83-0.04-1.3-0.13l-8.39-1.6
		l-5.26,27.58c-0.3,1.59-0.88,2.7-1.74,3.33c-0.64,0.47-1.35,0.71-2.14,0.71c-0.27,0-0.54-0.03-0.82-0.08
		c-1.14-0.22-1.99-0.78-2.56-1.7c-0.57-0.91-0.7-2.16-0.4-3.73l5.26-27.58l-8.39-1.6c-1.31-0.25-2.23-0.73-2.76-1.43
		c-0.53-0.7-0.7-1.53-0.52-2.47c0.19-0.98,0.67-1.7,1.44-2.14C231.1,298.61,231.71,298.47,232.41,298.47 M232.41,286.47
		L232.41,286.47c-2.82,0-5.44,0.68-7.78,2.02c-3.83,2.2-6.41,5.86-7.26,10.3c-0.82,4.29,0.15,8.54,2.73,11.95
		c1.26,1.67,3.37,3.71,6.75,5.03l-3.07,16.1c-1.1,5.75,0.48,9.87,2,12.31c2.34,3.76,6.07,6.3,10.5,7.15
		c1.02,0.19,2.06,0.29,3.07,0.29c3.36,0,6.57-1.06,9.28-3.06c2.31-1.71,5.28-4.95,6.38-10.73l3.07-16.1c0.03,0,0.06,0,0.09,0
		c2.9,0,5.56-0.71,7.93-2.11c3.75-2.22,6.27-5.83,7.1-10.18c0.82-4.29-0.15-8.53-2.74-11.96c-1.64-2.18-4.73-4.98-10.13-6.01
		l-24.45-4.66C234.72,286.58,233.55,286.47,232.41,286.47L232.41,286.47z"/>
</g>
<g>
	<path class="st0" d="M302.52,342.85c-2.01,0-3.95-0.62-5.59-1.79c-2.14-1.52-3.55-3.86-4.19-6.94l-6.11-29.11
		c-0.41-1.96-0.43-3.79-0.04-5.41c0.51-2.14,1.71-3.97,3.49-5.29c1.33-0.98,2.98-1.68,4.91-2.08l18.06-3.79
		c0.86-0.18,1.71-0.27,2.51-0.27c1.72,0,3.29,0.41,4.66,1.22c2.16,1.28,3.63,3.36,4.16,5.88c0.53,2.54,0.02,5.05-1.44,7.08
		c-0.79,1.09-1.81,1.98-3.04,2.64c0.34,0.14,0.67,0.31,1,0.5c2.15,1.26,3.61,3.35,4.14,5.87c0.54,2.55,0,5.07-1.5,7.09
		c-1.38,1.85-3.41,3.06-6.03,3.61l-6.74,1.42l1.38,6.59c0.65,3.11,0.29,5.83-1.07,8.08c-1.41,2.33-3.68,3.92-6.41,4.49
		C303.95,342.78,303.23,342.85,302.52,342.85z"/>
	<path class="st0" d="M315.56,294.16c0.64,0,1.17,0.13,1.61,0.39c0.71,0.42,1.15,1.06,1.34,1.94c0.19,0.89,0.04,1.68-0.44,2.34
		c-0.48,0.67-1.33,1.13-2.55,1.38l-15.1,3.17l2.03,9.68l12.62-2.65c0.44-0.09,0.85-0.14,1.22-0.14c0.61,0,1.13,0.13,1.56,0.38
		c0.69,0.4,1.12,1.04,1.31,1.92c0.18,0.88,0.04,1.64-0.44,2.27c-0.48,0.64-1.29,1.08-2.44,1.32l-12.62,2.65l2.61,12.46
		c0.33,1.58,0.22,2.83-0.33,3.75c-0.55,0.91-1.39,1.49-2.51,1.72c-0.31,0.07-0.62,0.1-0.91,0.1c-0.77,0-1.47-0.23-2.11-0.68
		c-0.88-0.62-1.48-1.72-1.81-3.28l-6.11-29.11c-0.23-1.1-0.26-2.03-0.08-2.8c0.18-0.77,0.59-1.38,1.22-1.84
		c0.63-0.46,1.49-0.81,2.57-1.04l18.06-3.79C314.75,294.21,315.17,294.16,315.56,294.16 M315.56,282.16c-1.21,0-2.47,0.14-3.75,0.4
		l-18.06,3.79c-2.77,0.58-5.21,1.63-7.23,3.12c-2.94,2.17-4.94,5.2-5.78,8.75c-0.59,2.48-0.58,5.18,0.01,8.01l6.11,29.11
		c1.2,5.73,4.25,8.93,6.59,10.59c2.66,1.9,5.8,2.9,9.07,2.9c1.12,0,2.25-0.12,3.37-0.35c4.37-0.92,8.04-3.49,10.31-7.26
		c1.5-2.48,3.02-6.64,1.81-12.42l-0.15-0.72l0.87-0.18c5.1-1.07,8.03-3.79,9.6-5.89c2.55-3.42,3.46-7.65,2.57-11.91
		c-0.42-2.01-1.21-3.86-2.31-5.47c1.85-3.17,2.44-6.89,1.66-10.61c-0.88-4.19-3.36-7.67-6.98-9.81
		C321,282.87,318.33,282.16,315.56,282.16L315.56,282.16z"/>
</g>
<g>
	<path class="st0" d="M353.65,339.24c-0.36,0-0.73-0.02-1.11-0.06c-2.08-0.21-3.96-0.98-5.44-2.24c-1.11-0.94-2.04-2.1-2.76-3.42
		c-0.42-0.76-0.95-1.83-1.62-3.26l-2.6-5.5c-0.23-0.51-0.45-0.95-0.64-1.34l-0.36,3.6c-0.32,3.18-1.48,5.67-3.45,7.4
		c-1.78,1.56-3.99,2.39-6.4,2.39c-0.35,0-0.71-0.02-1.08-0.05c-2.99-0.3-5.51-1.74-7.11-4.06c-1.43-2.07-2-4.65-1.7-7.65l2.96-29.59
		c0.33-3.31,1.56-5.86,3.66-7.58c1.76-1.44,3.98-2.17,6.61-2.17c0.5,0,1.02,0.03,1.55,0.08l12.67,1.27c2,0.2,3.69,0.46,5.17,0.78
		c1.79,0.4,3.45,1.03,4.91,1.87c1.82,1,3.41,2.34,4.72,3.97c1.34,1.67,2.32,3.58,2.89,5.67c0.55,2.01,0.72,4.11,0.51,6.23
		c-0.44,4.43-2.18,7.98-5.15,10.57c-0.46,0.4-0.94,0.77-1.45,1.11c0.63,1.05,1.22,2.13,1.75,3.23c0.97,2.01,1.68,3.79,2.2,5.44
		c0.7,2.27,0.93,3.76,0.8,5.14c-0.17,1.66-0.83,3.25-1.93,4.62c-1.04,1.29-2.35,2.26-3.92,2.87
		C356.18,339.01,354.94,339.24,353.65,339.24z"/>
	<path class="st0" d="M332.62,291.7c0.3,0,0.62,0.02,0.95,0.05l12.67,1.27c1.75,0.18,3.24,0.4,4.46,0.67
		c1.23,0.27,2.32,0.69,3.27,1.24c1.16,0.63,2.15,1.46,2.98,2.5c0.83,1.04,1.43,2.21,1.78,3.5c0.36,1.3,0.46,2.65,0.32,4.05
		c-0.29,2.87-1.33,5.08-3.11,6.63c-1.79,1.55-4.36,2.52-7.72,2.91c1.31,0.87,2.52,2.09,3.64,3.65c1.12,1.56,2.09,3.2,2.91,4.92
		c0.83,1.72,1.45,3.25,1.87,4.61c0.42,1.36,0.61,2.28,0.56,2.77c-0.05,0.51-0.26,0.99-0.64,1.46c-0.37,0.47-0.85,0.82-1.44,1.05
		c-0.45,0.18-0.94,0.27-1.47,0.27c-0.17,0-0.34-0.01-0.52-0.03c-0.88-0.09-1.59-0.37-2.14-0.84c-0.55-0.47-1.01-1.04-1.38-1.71
		c-0.37-0.67-0.85-1.66-1.47-2.96l-2.6-5.51c-0.93-2.02-1.79-3.57-2.57-4.66c-0.78-1.09-1.61-1.86-2.48-2.32
		c-0.87-0.46-2-0.76-3.38-0.9l-2.73-0.27l-1.24,12.36c-0.16,1.63-0.64,2.79-1.44,3.49c-0.68,0.6-1.5,0.9-2.44,0.9
		c-0.16,0-0.32-0.01-0.48-0.02c-1.24-0.12-2.16-0.62-2.77-1.5c-0.6-0.87-0.82-2.09-0.67-3.64l2.96-29.59
		c0.17-1.68,0.67-2.86,1.49-3.53C330.48,291.97,331.41,291.7,332.62,291.7 M344.47,309.31c0.82,0,1.56-0.05,2.23-0.15
		c1.31-0.2,2.34-0.65,3.09-1.36c0.75-0.71,1.2-1.75,1.33-3.11c0.11-1.07-0.07-2.03-0.53-2.9c-0.46-0.87-1.15-1.55-2.07-2.05
		c-0.87-0.48-2.64-0.85-5.32-1.12l-7.19-0.72l-1.06,10.57l6.98,0.7C342.84,309.26,343.69,309.31,344.47,309.31 M332.62,279.7
		c-5.04,0-8.44,1.92-10.41,3.53c-2.32,1.9-5.22,5.46-5.84,11.63l-2.96,29.59c-0.56,5.55,1.18,9.4,2.73,11.65
		c2.62,3.79,6.68,6.15,11.45,6.62c0.56,0.06,1.12,0.08,1.68,0.08c3.89,0,7.47-1.34,10.36-3.88c0.21-0.19,0.43-0.39,0.65-0.6
		c0.85,1.19,1.84,2.26,2.95,3.21c2.41,2.04,5.42,3.3,8.71,3.63c0.57,0.06,1.15,0.09,1.71,0.09c2.04,0,4.02-0.37,5.87-1.1
		c2.52-0.99,4.73-2.62,6.4-4.7c1.83-2.28,2.94-4.96,3.22-7.77c0.28-2.78-0.37-5.36-1.03-7.52c-0.54-1.75-1.26-3.58-2.2-5.58
		c2.3-2.68,4.52-6.67,5.09-12.39c0.29-2.86,0.05-5.69-0.69-8.41c-0.79-2.89-2.14-5.53-4-7.84c-1.8-2.24-3.97-4.07-6.46-5.45
		c-1.98-1.13-4.18-1.97-6.55-2.5c-1.72-0.38-3.64-0.67-5.87-0.9l-12.67-1.27C334.04,279.73,333.32,279.7,332.62,279.7L332.62,279.7z
		 M344.92,297.29L344.92,297.29C344.92,297.29,344.92,297.29,344.92,297.29L344.92,297.29L344.92,297.29z"/>
</g>
<g>
	<path class="st0" d="M370.92,349.06c-2.8,0-5.36-1.12-7.22-3.16c-1.76-1.93-2.66-4.5-2.66-7.61v-30.45c0-3.12,0.89-5.68,2.65-7.6
		c1.85-2.03,4.41-3.14,7.23-3.14c2.82,0,5.39,1.09,7.25,3.08c1.8,1.93,2.71,4.51,2.71,7.67v30.45c0,3.15-0.9,5.72-2.68,7.65
		C376.33,347.95,373.75,349.06,370.92,349.06z"/>
	<path class="st0" d="M370.92,303.08c1.18,0,2.13,0.39,2.86,1.17c0.73,0.78,1.09,1.97,1.09,3.57v30.45c0,1.6-0.37,2.79-1.09,3.59
		c-0.73,0.79-1.68,1.19-2.86,1.19c-1.13,0-2.05-0.4-2.78-1.2c-0.73-0.8-1.09-1.99-1.09-3.57v-30.45c0-1.58,0.36-2.77,1.08-3.56
		C368.84,303.48,369.77,303.08,370.92,303.08 M370.92,291.08c-4.52,0-8.67,1.81-11.67,5.1c-1.92,2.11-4.21,5.84-4.21,11.64v30.45
		c0,5.81,2.3,9.54,4.23,11.66c3,3.3,7.14,5.11,11.65,5.11c4.53,0,8.68-1.79,11.68-5.05c1.95-2.12,4.27-5.87,4.27-11.72v-30.45
		c0-5.89-2.35-9.64-4.32-11.75C379.55,292.85,375.42,291.08,370.92,291.08L370.92,291.08z"/>
</g>
<g>
	<path class="st0" d="M393.59,345.83c-2.12,0-4-0.54-5.57-1.62c-2.23-1.51-3.68-3.93-4.32-7.19l-5.6-28.51
		c-0.39-1.97-0.38-3.79,0.03-5.41c0.53-2.14,1.76-3.95,3.56-5.24c1.34-0.96,3-1.64,4.93-2.02l20.28-3.98
		c0.82-0.16,1.62-0.24,2.38-0.24c1.78,0,3.39,0.43,4.78,1.28c2.14,1.3,3.59,3.4,4.08,5.93c0.5,2.54-0.05,5.05-1.53,7.06
		c-0.57,0.77-1.26,1.43-2.06,1.99c0.35,0.15,0.68,0.33,1.01,0.52c2.12,1.29,3.56,3.38,4.05,5.89c0.48,2.46-0.02,4.91-1.43,6.89
		c-0.48,0.68-1.19,1.46-2.21,2.15c0.03,0,0.06,0,0.09,0c1.79,0,3.41,0.44,4.83,1.3c2.16,1.32,3.62,3.46,4.13,6.03
		c0.5,2.54-0.05,5.06-1.55,7.08c-0.98,1.33-2.85,3.04-6.24,3.7l-20.88,4.1C395.4,345.74,394.47,345.83,393.59,345.83z"/>
	<path class="st0" d="M409.28,297.62c0.66,0,1.22,0.14,1.67,0.41c0.7,0.43,1.14,1.08,1.31,1.96c0.18,0.9,0.02,1.68-0.47,2.34
		c-0.49,0.66-1.35,1.11-2.57,1.35l-17.31,3.4l1.83,9.31l15.94-3.13c0.42-0.08,0.81-0.12,1.16-0.12c0.64,0,1.18,0.13,1.62,0.4
		c0.68,0.41,1.11,1.05,1.28,1.91c0.17,0.86,0.02,1.62-0.44,2.28c-0.46,0.66-1.29,1.1-2.48,1.33l-15.94,3.13l2.12,10.79l17.9-3.51
		c0.42-0.08,0.81-0.12,1.18-0.12c0.68,0,1.25,0.14,1.72,0.43c0.72,0.44,1.17,1.13,1.36,2.06c0.18,0.9,0.01,1.69-0.49,2.37
		c-0.5,0.68-1.36,1.14-2.56,1.38l-20.88,4.1c-0.59,0.12-1.14,0.17-1.63,0.17c-0.9,0-1.63-0.19-2.2-0.58
		c-0.88-0.6-1.48-1.72-1.81-3.38l-5.6-28.51c-0.22-1.1-0.23-2.04-0.04-2.8c0.19-0.76,0.6-1.37,1.24-1.83c0.64-0.46,1.5-0.79,2.58-1
		l20.29-3.98C408.5,297.66,408.91,297.62,409.28,297.62 M409.28,285.62c-1.15,0-2.33,0.12-3.53,0.35l-20.28,3.98
		c-2.78,0.55-5.23,1.56-7.27,3.03c-2.97,2.13-5.01,5.13-5.89,8.68c-0.62,2.48-0.65,5.17-0.09,8.01l5.6,28.51
		c1.19,6.06,4.37,9.32,6.84,11c2.55,1.73,5.64,2.65,8.94,2.65c1.26,0,2.59-0.13,3.94-0.4l20.88-4.1c5.28-1.04,8.3-3.85,9.91-6.03
		c2.51-3.4,3.44-7.59,2.61-11.8c-0.74-3.77-2.75-6.99-5.72-9.21c0.67-2.28,0.79-4.73,0.31-7.17c-0.44-2.25-1.34-4.29-2.64-6.05
		c1.39-2.88,1.8-6.13,1.16-9.41c-0.82-4.2-3.26-7.72-6.85-9.9C414.87,286.36,412.13,285.62,409.28,285.62L409.28,285.62z"/>
</g>
<g>
	<path class="st0" d="M450.77,339.88c-0.5,0-1.03-0.03-1.55-0.1c-1.37-0.18-2.66-0.57-3.81-1.15c-1.22-0.62-2.31-1.49-3.25-2.57
		c-0.71-0.82-1.36-1.76-1.91-2.79c-0.36-0.68-0.72-1.37-1.08-2.07l-2.97-6.16l-0.32,2.45c-0.39,2.98-1.57,5.33-3.51,6.99
		c-1.73,1.47-3.84,2.25-6.11,2.25c-0.43,0-0.88-0.03-1.31-0.09c-2.8-0.36-5.18-1.82-6.71-4.09c-1.39-2.08-1.91-4.62-1.53-7.54
		l3.84-29.58c0.26-2.02,0.75-3.66,1.49-5.01l0.08-0.13c1.03-1.77,2.59-3.19,4.5-4.11c1.46-0.7,3-1.05,4.57-1.05
		c0.45,0,0.91,0.03,1.37,0.09c1.56,0.2,2.95,0.68,4.15,1.43c1.09,0.68,2.03,1.54,2.8,2.56c0.59,0.78,1.1,1.65,1.59,2.69
		c0.31,0.66,0.63,1.35,0.96,2.06l3.2,6.54l0.39-3.01c0.38-2.94,1.5-5.26,3.33-6.9c1.71-1.54,3.84-2.35,6.17-2.35
		c0.44,0,0.88,0.03,1.33,0.09c2.82,0.37,5.21,1.81,6.72,4.08c1.37,2.07,1.87,4.61,1.49,7.56l-3.91,30.15
		C459.84,337.31,455,339.88,450.77,339.88z"/>
	<path class="st0" d="M431.19,291.12c0.2,0,0.4,0.01,0.6,0.04c0.7,0.09,1.28,0.28,1.75,0.57c0.47,0.29,0.86,0.65,1.19,1.08
		c0.33,0.43,0.64,0.98,0.96,1.64c0.31,0.66,0.64,1.35,0.97,2.07l12,24.53l2.96-22.8c0.19-1.48,0.65-2.55,1.39-3.21
		c0.6-0.54,1.33-0.81,2.17-0.81c0.18,0,0.36,0.01,0.55,0.04c1.12,0.14,1.95,0.63,2.5,1.45c0.55,0.82,0.73,1.98,0.53,3.46
		l-3.91,30.15c-0.39,3.04-1.75,4.56-4.06,4.56c-0.25,0-0.51-0.02-0.78-0.05c-0.7-0.09-1.31-0.27-1.84-0.55
		c-0.53-0.27-1.01-0.66-1.45-1.16c-0.43-0.5-0.82-1.07-1.16-1.71c-0.34-0.64-0.68-1.29-1.02-1.95l-11.67-24.22l-2.92,22.46
		c-0.19,1.46-0.67,2.53-1.45,3.19c-0.64,0.55-1.38,0.82-2.22,0.82c-0.17,0-0.35-0.01-0.54-0.04c-1.1-0.14-1.93-0.64-2.49-1.48
		c-0.56-0.84-0.75-1.99-0.56-3.44l3.84-29.57c0.16-1.26,0.43-2.22,0.8-2.9c0.43-0.74,1.06-1.31,1.9-1.71
		C429.85,291.27,430.51,291.12,431.19,291.12 M431.19,279.12c-2.48,0-4.89,0.55-7.16,1.63c-2.99,1.43-5.45,3.67-7.09,6.49
		l-0.08,0.14l-0.08,0.14c-1.1,2.02-1.82,4.35-2.18,7.12l-3.84,29.57c-0.71,5.49,0.96,9.36,2.49,11.65c2.5,3.74,6.38,6.12,10.93,6.71
		c0.69,0.09,1.39,0.14,2.08,0.14c3.71,0,7.17-1.27,10-3.68c0.12-0.1,0.24-0.21,0.36-0.32c0.32,0.44,0.66,0.86,1.01,1.26
		c1.43,1.66,3.13,3,5.04,3.98c1.77,0.91,3.71,1.5,5.77,1.77c0.78,0.1,1.56,0.15,2.32,0.15c6.97,0,14.61-4.64,15.96-15.01l3.91-30.15
		c0.72-5.51-0.93-9.38-2.44-11.65c-2.49-3.74-6.37-6.12-10.95-6.71c-0.7-0.09-1.41-0.14-2.1-0.14c-3.78,0-7.4,1.38-10.19,3.89
		c-0.06,0.05-0.12,0.11-0.17,0.16c-0.16-0.23-0.32-0.45-0.48-0.67c-1.23-1.63-2.71-2.99-4.43-4.06c-1.94-1.21-4.14-1.97-6.55-2.29
		C432.62,279.17,431.9,279.12,431.19,279.12L431.19,279.12z"/>
</g>
<g>
	<path class="st0" d="M471.03,344.38c-1.96,0-3.63-0.35-5.07-1.08c-2.13-1.07-3.69-2.81-4.49-5.03c-0.47-1.29-0.76-2.8-0.89-4.62
		l-2.07-28.27c-0.24-3.32,0.53-6.05,2.31-8.1c1.77-2.05,4.35-3.21,7.67-3.46l10.18-0.75c1.08-0.08,2.13-0.12,3.12-0.12
		c1.9,0,3.67,0.15,5.26,0.44c2.85,0.52,5.51,1.7,7.89,3.5c5.67,4.17,8.9,10.78,9.54,19.58c0.2,2.72,0.14,5.28-0.18,7.63
		c-0.34,2.52-1.01,4.87-1.98,6.99c-1,2.18-2.35,4.19-4.02,5.97c-1.43,1.49-3,2.69-4.71,3.63c-1.66,0.91-3.46,1.6-5.38,2.05
		c-1.69,0.4-3.61,0.68-5.69,0.84l-10.18,0.75C471.88,344.37,471.44,344.38,471.03,344.38z M479.86,325.51
		c1.33-0.1,2.04-0.19,2.41-0.25c0.24-0.04,0.52-0.13,0.83-0.27c0.09-0.04,0.12-0.06,0.12-0.06c1.15-1.13,1.61-3.61,1.36-7.04
		c-0.27-3.74-1.03-5.07-1.25-5.38c-0.48-0.67-0.83-0.9-0.96-0.93c-0.75-0.17-1.67-0.26-2.72-0.26c-0.27,0-0.55,0.01-0.83,0.02
		L479.86,325.51z"/>
	<path class="st0" d="M481.78,298.96c1.54,0,2.94,0.11,4.18,0.34c1.93,0.35,3.71,1.15,5.36,2.38c4.27,3.14,6.66,8.22,7.17,15.23
		c0.17,2.31,0.12,4.44-0.14,6.38c-0.26,1.94-0.76,3.71-1.49,5.3c-0.73,1.6-1.71,3.05-2.93,4.35c-0.97,1.01-2.04,1.83-3.23,2.48
		c-1.19,0.65-2.48,1.14-3.87,1.47c-1.39,0.33-2.98,0.56-4.75,0.69l-10.18,0.75c-0.31,0.02-0.6,0.03-0.88,0.03
		c-1,0-1.79-0.15-2.38-0.44c-0.75-0.38-1.26-0.95-1.54-1.71c-0.28-0.76-0.46-1.77-0.55-3.01l-2.07-28.27
		c-0.12-1.68,0.16-2.93,0.86-3.74c0.7-0.81,1.89-1.28,3.57-1.4l10.18-0.75C480.04,298.99,480.93,298.96,481.78,298.96
		 M474.32,331.93l5.92-0.43c1.3-0.1,2.31-0.2,3.04-0.33c0.73-0.12,1.48-0.36,2.25-0.69c0.77-0.34,1.42-0.78,1.96-1.33
		c2.45-2.4,3.48-6.3,3.08-11.7c-0.28-3.8-1.06-6.61-2.35-8.42c-1.29-1.81-2.79-2.91-4.51-3.3c-1.19-0.27-2.54-0.41-4.06-0.41
		c-0.67,0-1.37,0.03-2.1,0.08l-5.15,0.38L474.32,331.93 M481.78,286.96c-1.14,0-2.33,0.05-3.56,0.14l-10.18,0.75
		c-6.18,0.45-9.82,3.25-11.78,5.52c-1.96,2.27-4.2,6.27-3.75,12.46l2.07,28.27c0.17,2.37,0.58,4.41,1.24,6.23
		c1.31,3.63,3.96,6.6,7.44,8.35c2.26,1.14,4.88,1.72,7.76,1.72c0.57,0,1.16-0.02,1.75-0.07l10.18-0.75c2.4-0.18,4.64-0.51,6.64-0.98
		c2.43-0.58,4.75-1.46,6.87-2.63c2.24-1.23,4.3-2.81,6.1-4.68l0.05-0.05l0.05-0.05c2.12-2.25,3.83-4.8,5.1-7.58
		c1.21-2.66,2.04-5.57,2.46-8.67c0.37-2.76,0.45-5.74,0.22-8.87c-0.97-13.2-7.03-20.32-11.97-23.98c-3.13-2.34-6.62-3.88-10.37-4.57
		C486.17,287.14,484.04,286.96,481.78,286.96L481.78,286.96z"/>
</g>
<g>
	<path class="st0" d="M521.25,341.69c-1.08,0-2.21-0.06-3.36-0.19c-4.84-0.52-8.9-1.96-12.07-4.28c-2.43-1.81-4.32-4.07-5.65-6.76
		c-1.42-2.87-1.98-5.72-1.69-8.49c0.27-2.51,1.44-4.69,3.38-6.3c0.5-0.41,1.03-0.77,1.59-1.07c-0.19-0.28-0.36-0.57-0.53-0.86
		c-1.58-2.73-2.19-5.89-1.81-9.39c0.36-3.36,1.63-6.3,3.78-8.76c2.1-2.4,4.89-4.1,8.29-5.07c2.06-0.59,4.32-0.88,6.7-0.88
		c1.1,0,2.26,0.06,3.43,0.19c3,0.32,5.67,1.01,7.91,2.06c2.35,1.09,4.32,2.47,5.87,4.11c1.59,1.68,2.75,3.49,3.44,5.38
		c0.73,1.99,0.99,3.97,0.78,5.9c-0.26,2.39-1.35,4.52-3.16,6.18c-0.1,0.1-0.21,0.19-0.32,0.28c0.98,1.21,1.76,2.57,2.33,4.05
		c0.9,2.32,1.19,4.95,0.88,7.84c-0.37,3.48-1.64,6.58-3.77,9.21c-2.12,2.62-4.98,4.54-8.5,5.71
		C526.49,341.31,523.95,341.69,521.25,341.69z"/>
	<path class="st0" d="M519.88,295.63c0.89,0,1.83,0.05,2.79,0.16c2.36,0.25,4.37,0.76,6.03,1.53c1.66,0.77,3.01,1.7,4.04,2.79
		c1.03,1.09,1.75,2.2,2.16,3.32c0.41,1.12,0.56,2.19,0.45,3.2c-0.1,0.93-0.52,1.73-1.25,2.4c-0.64,0.58-1.36,0.87-2.18,0.87
		c-0.13,0-0.26-0.01-0.39-0.02c-0.89-0.1-1.55-0.39-1.96-0.89c-0.42-0.5-0.84-1.28-1.27-2.35c-0.54-1.53-1.26-2.75-2.15-3.66
		c-0.89-0.92-2.42-1.49-4.59-1.72c-0.45-0.05-0.88-0.07-1.29-0.07c-1.44,0-2.68,0.29-3.71,0.88c-1.33,0.75-2.06,1.75-2.19,2.99
		c-0.08,0.77,0.06,1.46,0.42,2.06c0.36,0.6,0.89,1.15,1.58,1.63c0.69,0.48,1.4,0.88,2.13,1.18c0.73,0.31,1.93,0.77,3.62,1.39
		c2.11,0.74,4.02,1.51,5.71,2.31c1.69,0.8,3.11,1.7,4.25,2.71c1.14,1.01,1.98,2.21,2.53,3.63c0.55,1.41,0.72,3.09,0.51,5.03
		c-0.25,2.32-1.07,4.35-2.47,6.07c-1.4,1.72-3.3,2.99-5.72,3.79c-1.7,0.56-3.59,0.85-5.66,0.85c-0.87,0-1.78-0.05-2.72-0.15
		c-3.79-0.41-6.84-1.46-9.16-3.15c-1.64-1.22-2.91-2.75-3.82-4.59c-0.91-1.84-1.27-3.57-1.1-5.2c0.1-0.94,0.52-1.72,1.24-2.32
		c0.62-0.51,1.34-0.77,2.16-0.77c0.15,0,0.3,0.01,0.45,0.02c0.82,0.09,1.49,0.42,2,1.01c0.51,0.59,0.91,1.41,1.21,2.49
		c0.36,1.28,0.78,2.35,1.26,3.24c0.48,0.88,1.21,1.65,2.18,2.29c0.97,0.64,2.3,1.05,3.98,1.23c0.49,0.05,0.96,0.08,1.41,0.08
		c1.69,0,3.15-0.36,4.38-1.09c1.56-0.92,2.42-2.18,2.59-3.79c0.14-1.28-0.14-2.35-0.83-3.23c-0.69-0.88-1.63-1.59-2.82-2.14
		c-1.19-0.55-2.79-1.17-4.8-1.87c-2.69-0.94-4.92-1.95-6.69-3.01c-1.77-1.06-3.12-2.4-4.05-4.01c-0.93-1.61-1.28-3.53-1.04-5.75
		c0.23-2.11,1-3.93,2.33-5.45c1.33-1.52,3.13-2.6,5.41-3.25C516.36,295.85,518.04,295.63,519.88,295.63 M519.88,283.63
		c-2.94,0-5.75,0.37-8.34,1.11c-4.53,1.29-8.29,3.61-11.16,6.89c-2.94,3.36-4.75,7.54-5.24,12.08c-0.35,3.25-0.03,6.4,0.92,9.29
		c-1.97,2.34-3.21,5.22-3.54,8.33c-0.42,3.92,0.35,7.88,2.27,11.79c1.75,3.55,4.25,6.54,7.42,8.9l0.03,0.02l0.03,0.02
		c4.03,2.96,9.07,4.78,14.98,5.41c1.36,0.15,2.7,0.22,4,0.22c3.34,0,6.52-0.49,9.43-1.45c4.62-1.53,8.42-4.1,11.28-7.63
		c2.87-3.54,4.57-7.7,5.07-12.35c0.41-3.85-0.01-7.43-1.25-10.64c-0.18-0.47-0.38-0.92-0.59-1.37c1.15-1.92,1.86-4.06,2.1-6.34
		c0.3-2.85-0.07-5.74-1.11-8.6c-0.97-2.66-2.56-5.17-4.72-7.45c-2.07-2.19-4.67-4.02-7.7-5.43c-2.85-1.32-6.15-2.19-9.8-2.58
		C522.57,283.7,521.2,283.63,519.88,283.63L519.88,283.63z"/>
</g>
<g>
	<path class="st0" d="M585.97,338.25c-1.56,0-3.11-0.13-4.59-0.39c-3.42-0.59-6.53-1.85-9.26-3.73c-2.71-1.88-5-4.34-6.8-7.33
		c-1.73-2.86-2.96-6.19-3.65-9.89c-0.68-3.62-0.76-7.12-0.23-10.42c0.56-3.49,1.8-6.66,3.68-9.41c1.88-2.74,4.36-5.05,7.38-6.86
		c2.88-1.73,6.27-2.97,10.06-3.68c1.91-0.36,3.76-0.54,5.51-0.54c1.19,0,2.35,0.08,3.47,0.25c2.82,0.42,5.29,1.22,7.35,2.39
		c2.07,1.17,3.79,2.59,5.1,4.22c1.47,1.81,2.39,3.69,2.74,5.57c0.38,2,0.11,4.01-0.76,5.81c0.52,0.34,1.01,0.73,1.47,1.18
		c1.5,1.47,2.46,3.43,2.94,6l1.37,7.28c0.3,1.61,0.37,3,0.2,4.27c-0.22,1.64-0.86,3.19-1.9,4.58c-0.72,0.96-1.63,1.88-2.72,2.77
		c-2.42,1.97-4.88,3.56-7.31,4.72c-2.48,1.19-5.26,2.08-8.27,2.65C589.78,338.06,587.83,338.25,585.97,338.25z M586.66,304.23
		c-0.38,0-0.83,0.05-1.35,0.15c-0.95,0.18-1.73,0.47-2.32,0.88c-0.54,0.37-0.94,0.8-1.26,1.37c-0.37,0.64-0.61,1.46-0.72,2.43
		c-0.09,0.78-0.09,1.62,0,2.53c0.28-1.17,0.81-2.28,1.57-3.27c0.94-1.24,2.68-2.82,5.63-3.48c-0.13-0.11-0.23-0.2-0.31-0.26
		c-0.01-0.01-0.2-0.16-0.77-0.3C587.11,304.26,586.97,304.23,586.66,304.23z"/>
	<path class="st0" d="M588.06,292c0.9,0,1.76,0.06,2.58,0.18c2.1,0.31,3.86,0.87,5.28,1.68c1.42,0.81,2.55,1.73,3.39,2.77
		c0.84,1.04,1.34,2.01,1.51,2.91c0.18,0.97-0.02,1.86-0.61,2.68c-0.59,0.82-1.38,1.32-2.39,1.51c-0.22,0.04-0.43,0.06-0.65,0.06
		c-0.34,0-0.68-0.05-1.02-0.15c-0.56-0.16-1.05-0.45-1.49-0.85c-1.23-1.31-2.24-2.28-3.04-2.92c-0.8-0.64-1.81-1.11-3.02-1.42
		c-0.59-0.15-1.24-0.23-1.96-0.23c-0.75,0-1.57,0.08-2.45,0.25c-1.78,0.33-3.31,0.94-4.59,1.82c-1.28,0.88-2.31,1.99-3.09,3.34
		c-0.77,1.35-1.27,2.93-1.47,4.72c-0.21,1.79-0.12,3.72,0.27,5.77c0.84,4.46,2.51,7.69,5,9.71c1.86,1.5,4.05,2.25,6.56,2.25
		c0.86,0,1.75-0.09,2.68-0.26c1.78-0.33,3.41-0.88,4.88-1.64s2.94-1.72,4.38-2.89l-1.16-6.17l-5.96,1.12
		c-0.69,0.13-1.3,0.19-1.85,0.19c-0.59,0-1.1-0.08-1.53-0.23c-0.82-0.29-1.32-0.96-1.52-2c-0.16-0.85,0.02-1.6,0.53-2.27
		c0.51-0.67,1.29-1.1,2.34-1.3l8.73-1.64c0.86-0.16,1.62-0.24,2.29-0.24c0.17,0,0.33,0.01,0.48,0.02c0.78,0.05,1.46,0.36,2.04,0.93
		c0.58,0.57,0.99,1.51,1.24,2.83l1.37,7.28c0.18,0.97,0.23,1.76,0.15,2.37c-0.08,0.61-0.33,1.2-0.76,1.77
		c-0.42,0.56-0.99,1.13-1.7,1.72c-2.06,1.68-4.1,3-6.12,3.97c-2.02,0.97-4.28,1.69-6.78,2.16c-1.61,0.3-3.17,0.45-4.67,0.45
		c-1.22,0-2.41-0.1-3.57-0.3c-2.57-0.45-4.86-1.37-6.88-2.76c-2.01-1.39-3.7-3.22-5.07-5.49c-1.37-2.27-2.33-4.9-2.9-7.91
		c-0.56-2.95-0.62-5.74-0.2-8.36c0.42-2.62,1.32-4.94,2.71-6.98c1.39-2.03,3.22-3.73,5.51-5.1c2.28-1.37,4.98-2.34,8.09-2.93
		C585.21,292.14,586.68,292,588.06,292 M588.06,280c-2.12,0-4.34,0.22-6.62,0.64c-4.5,0.85-8.55,2.34-12.04,4.43
		c-3.77,2.26-6.88,5.16-9.24,8.62c-2.39,3.49-3.95,7.48-4.65,11.85c-0.64,3.98-0.55,8.17,0.26,12.48c0.83,4.4,2.31,8.4,4.41,11.89
		c2.24,3.72,5.11,6.8,8.52,9.16c3.45,2.38,7.36,3.96,11.65,4.71c1.82,0.32,3.71,0.48,5.62,0.48c2.24,0,4.56-0.22,6.89-0.66
		c3.53-0.66,6.81-1.72,9.76-3.14c2.85-1.37,5.71-3.21,8.49-5.47c1.48-1.2,2.73-2.49,3.74-3.83c1.65-2.2,2.71-4.76,3.05-7.4
		c0.25-1.9,0.17-3.91-0.25-6.16l-1.37-7.28c-0.59-3.15-1.78-5.82-3.53-7.97c0.23-1.65,0.2-3.34-0.12-5.03
		c-0.54-2.86-1.87-5.63-3.97-8.23c-1.79-2.22-4.08-4.12-6.81-5.67c-2.7-1.53-5.87-2.58-9.43-3.11
		C591.01,280.1,589.54,280,588.06,280L588.06,280z"/>
</g>
<g>
	<path class="st0" d="M618.2,336.21c-2.5,0-4.78-0.9-6.61-2.6c-1.91-1.79-3.01-4.27-3.26-7.38l-2.43-30.36
		c-0.25-3.1,0.43-5.73,2.03-7.79c1.68-2.17,4.16-3.49,6.96-3.71c0.3-0.02,0.59-0.04,0.87-0.04c2.5,0,4.78,0.87,6.59,2.53
		c1.95,1.78,3.06,4.28,3.31,7.43l2.43,30.36c0.25,3.14-0.44,5.78-2.07,7.84c-1.69,2.15-4.17,3.46-7,3.69
		C618.75,336.19,618.47,336.21,618.2,336.21z"/>
	<path class="st0" d="M615.77,290.33c1,0,1.85,0.32,2.55,0.96c0.79,0.72,1.25,1.88,1.38,3.47l2.43,30.36
		c0.13,1.59-0.14,2.82-0.81,3.66s-1.58,1.32-2.76,1.41c-0.12,0.01-0.24,0.01-0.36,0.01c-0.97,0-1.81-0.33-2.51-0.99
		c-0.79-0.74-1.25-1.9-1.38-3.47l-2.43-30.36c-0.13-1.58,0.14-2.79,0.79-3.63c0.66-0.85,1.55-1.31,2.69-1.41
		C615.5,290.33,615.64,290.33,615.77,290.33 M615.77,278.33L615.77,278.33L615.77,278.33c-0.45,0-0.9,0.02-1.35,0.05
		c-4.51,0.36-8.49,2.5-11.22,6.02c-1.75,2.26-3.73,6.16-3.27,11.94l2.43,30.36c0.46,5.79,3.05,9.33,5.14,11.28
		c2.91,2.72,6.71,4.22,10.7,4.22c0.44,0,0.88-0.02,1.32-0.05c4.51-0.36,8.51-2.48,11.24-5.97c1.77-2.26,3.79-6.19,3.33-12.02
		l-2.43-30.36c-0.47-5.87-3.11-9.43-5.24-11.38C623.51,279.78,619.73,278.33,615.77,278.33L615.77,278.33z"/>
</g>
<g>
	<path class="st0" d="M639.17,345.68c-2.36,0-4.54-0.8-6.32-2.33c-1.99-1.71-3.19-4.16-3.55-7.29l-3.46-29.54
		c-0.23-1.99-0.09-3.8,0.44-5.39c0.7-2.11,2.07-3.82,3.96-4.97c1.4-0.85,3.11-1.4,5.07-1.63l18.33-2.15
		c0.52-0.06,1.03-0.09,1.52-0.09c2.13,0,4,0.57,5.55,1.68c2.03,1.45,3.31,3.67,3.61,6.22c0.3,2.58-0.44,5.04-2.08,6.93
		c-0.88,1.01-1.97,1.8-3.26,2.35c0.33,0.18,0.65,0.37,0.95,0.59c2.02,1.45,3.29,3.65,3.59,6.21c0.3,2.59-0.45,5.06-2.13,6.93
		c-1.54,1.71-3.66,2.74-6.32,3.05l-6.85,0.8l0.78,6.69c0.37,3.16-0.23,5.84-1.79,7.96c-1.61,2.19-4.02,3.57-6.79,3.9
		C639.99,345.65,639.58,345.68,639.17,345.68z"/>
	<path class="st0" d="M655.15,298.3c0.85,0,1.53,0.18,2.04,0.55c0.67,0.48,1.05,1.16,1.16,2.05c0.11,0.91-0.11,1.67-0.65,2.29
		c-0.54,0.62-1.43,1-2.67,1.15l-15.32,1.8l1.15,9.82l12.81-1.5c0.27-0.03,0.53-0.05,0.78-0.05c0.82,0,1.47,0.18,1.97,0.54
		c0.65,0.46,1.02,1.14,1.13,2.03c0.1,0.89-0.11,1.63-0.64,2.23c-0.53,0.59-1.38,0.96-2.55,1.1l-12.81,1.5l1.48,12.65
		c0.19,1.61-0.03,2.84-0.67,3.7c-0.63,0.86-1.52,1.36-2.65,1.49c-0.19,0.02-0.37,0.03-0.55,0.03c-0.92,0-1.72-0.29-2.41-0.88
		c-0.82-0.7-1.32-1.85-1.5-3.43l-3.46-29.54c-0.13-1.12-0.07-2.05,0.18-2.79s0.71-1.32,1.38-1.73c0.67-0.41,1.55-0.67,2.65-0.8
		l18.33-2.15C654.62,298.31,654.89,298.3,655.15,298.3 M655.15,286.3c-0.72,0-1.47,0.04-2.22,0.13l-18.33,2.15
		c-2.82,0.33-5.34,1.16-7.48,2.46c-3.12,1.89-5.38,4.72-6.53,8.19c-0.81,2.43-1.05,5.11-0.71,7.99l3.46,29.54
		c0.68,5.82,3.43,9.27,5.61,11.14c2.88,2.47,6.41,3.77,10.22,3.77c0.64,0,1.29-0.04,1.94-0.11c4.44-0.52,8.32-2.76,10.92-6.3
		c1.71-2.33,3.61-6.33,2.92-12.21l-0.09-0.73l0.89-0.1c5.17-0.61,8.34-3.06,10.09-5c2.85-3.17,4.13-7.31,3.63-11.64
		c-0.24-2.04-0.86-3.95-1.81-5.65c2.13-2.98,3.05-6.64,2.61-10.42c-0.5-4.26-2.66-7.95-6.08-10.41
		C661.64,287.27,658.51,286.3,655.15,286.3L655.15,286.3z"/>
</g>
<g>
	<path class="st0" d="M676.09,334.74c-0.55,0-1.11-0.04-1.66-0.13c-2.78-0.44-5.14-1.94-6.66-4.23c-1.45-2.18-1.94-4.87-1.44-7.98
		l3.49-21.8l-2.51-0.4c-2.83-0.45-5.03-1.63-6.53-3.51c-1.6-2-2.26-4.54-1.84-7.16c0.43-2.71,1.91-4.97,4.17-6.35
		c1.48-0.91,3.19-1.37,5.09-1.37c0.65,0,1.33,0.06,2.03,0.17l24.58,3.94c2.84,0.46,5.05,1.64,6.57,3.53
		c1.61,2.02,2.27,4.56,1.85,7.18c-0.43,2.65-1.87,4.88-4.08,6.27c-1.49,0.94-3.24,1.42-5.18,1.42c-0.67,0-1.37-0.06-2.08-0.17
		l-2.51-0.4l-3.49,21.8c-0.5,3.13-1.8,5.53-3.85,7.15C680.33,334.03,678.27,334.74,676.09,334.74z"/>
	<path class="st0" d="M668.2,287.8c0.34,0,0.7,0.03,1.08,0.09l24.58,3.94c1.34,0.21,2.28,0.67,2.84,1.36
		c0.56,0.69,0.76,1.52,0.6,2.47c-0.15,0.95-0.61,1.67-1.36,2.15c-0.52,0.33-1.18,0.49-1.97,0.49c-0.35,0-0.73-0.03-1.14-0.1
		l-8.44-1.35l-4.44,27.73c-0.26,1.6-0.8,2.72-1.64,3.38c-0.66,0.52-1.4,0.77-2.24,0.77c-0.23,0-0.47-0.02-0.71-0.06
		c-1.15-0.18-2.02-0.72-2.61-1.62c-0.6-0.9-0.77-2.13-0.51-3.71l4.44-27.73l-8.44-1.35c-1.32-0.21-2.25-0.66-2.8-1.34
		c-0.55-0.68-0.75-1.5-0.59-2.46c0.16-0.99,0.62-1.72,1.38-2.18C666.77,287.96,667.42,287.8,668.2,287.8 M668.2,275.8
		c-2.98,0-5.83,0.78-8.23,2.26c-3.76,2.3-6.23,6.04-6.95,10.51c-0.69,4.31,0.4,8.53,3.08,11.87c1.31,1.63,3.49,3.61,6.9,4.83
		l-2.59,16.18c-0.93,5.79,0.77,9.85,2.36,12.25c2.45,3.69,6.26,6.12,10.71,6.83c0.87,0.14,1.74,0.21,2.61,0.21
		c3.54,0,6.88-1.16,9.66-3.35c2.25-1.77,5.13-5.11,6.06-10.91l2.59-16.18c2.9-0.07,5.64-0.88,7.96-2.35
		c3.68-2.32,6.09-6.01,6.79-10.39c0.69-4.31-0.41-8.52-3.08-11.87c-1.72-2.14-4.88-4.85-10.31-5.72l-24.58-3.94
		C670.17,275.88,669.17,275.8,668.2,275.8L668.2,275.8z"/>
</g>
<g>
	<path class="st0" d="M710.47,349.02c-4.87,0-9.06-1-12.46-2.98c-2.61-1.54-4.73-3.59-6.33-6.13c-1.71-2.7-2.58-5.48-2.58-8.26
		c0-2.53,0.93-4.82,2.69-6.63c0.45-0.46,0.94-0.87,1.47-1.23c-0.21-0.26-0.42-0.53-0.62-0.8c-1.86-2.54-2.8-5.62-2.8-9.14
		c0-3.38,0.95-6.44,2.83-9.12c1.83-2.61,4.42-4.6,7.7-5.93c2.91-1.17,6.27-1.77,10-1.77c3.02,0,5.74,0.4,8.09,1.2
		c2.45,0.83,4.56,2,6.28,3.46c1.76,1.5,3.1,3.18,3.99,4.99c0.93,1.9,1.41,3.84,1.41,5.79c0,2.4-0.86,4.64-2.49,6.48
		c-0.09,0.11-0.19,0.21-0.29,0.31c1.1,1.1,2.02,2.37,2.75,3.78c1.14,2.2,1.71,4.79,1.71,7.7c0,3.5-0.93,6.72-2.77,9.56
		c-1.83,2.83-4.47,5.05-7.84,6.58C718.11,348.3,714.5,349.02,710.47,349.02z"/>
	<path class="st0" d="M710.36,303.04c2.37,0,4.42,0.29,6.16,0.88c1.73,0.59,3.17,1.37,4.31,2.35s1.98,2,2.5,3.07
		c0.53,1.07,0.79,2.12,0.79,3.14c0,0.93-0.33,1.77-0.99,2.52c-0.66,0.75-1.48,1.12-2.47,1.12c-0.9,0-1.58-0.22-2.04-0.67
		s-0.97-1.18-1.52-2.2c-0.7-1.46-1.55-2.6-2.53-3.41c-0.98-0.82-2.57-1.23-4.75-1.23c-2.02,0-3.65,0.44-4.89,1.33
		c-1.24,0.89-1.86,1.96-1.86,3.2c0,0.77,0.21,1.44,0.63,2c0.42,0.56,1,1.05,1.74,1.45c0.74,0.4,1.49,0.72,2.24,0.95
		c0.76,0.23,2,0.56,3.74,1c2.18,0.51,4.15,1.07,5.92,1.69c1.77,0.62,3.27,1.36,4.51,2.24c1.24,0.88,2.21,1.99,2.9,3.34
		c0.69,1.34,1.04,2.99,1.04,4.94c0,2.34-0.6,4.44-1.81,6.3c-1.2,1.86-2.97,3.32-5.29,4.38c-2.32,1.05-5.07,1.58-8.25,1.58
		c-3.81,0-6.96-0.72-9.44-2.16c-1.76-1.04-3.19-2.42-4.29-4.15c-1.1-1.73-1.65-3.41-1.65-5.05c0-0.95,0.33-1.76,0.99-2.44
		c0.66-0.68,1.5-1.02,2.52-1.02c0.83,0,1.52,0.26,2.1,0.79c0.57,0.53,1.06,1.31,1.46,2.35c0.49,1.23,1.02,2.26,1.59,3.08
		c0.57,0.83,1.38,1.51,2.41,2.04c1.04,0.54,2.4,0.8,4.09,0.8c2.32,0,4.21-0.54,5.66-1.62c1.45-1.08,2.17-2.43,2.17-4.05
		c0-1.28-0.39-2.32-1.17-3.12c-0.78-0.8-1.79-1.41-3.03-1.83c-1.24-0.42-2.9-0.87-4.97-1.34c-2.78-0.65-5.1-1.41-6.97-2.28
		c-1.87-0.87-3.36-2.06-4.46-3.56s-1.65-3.37-1.65-5.6c0-2.13,0.58-4.02,1.74-5.67c1.16-1.65,2.84-2.92,5.04-3.81
		C704.81,303.49,707.39,303.04,710.36,303.04 M710.36,291.04c-4.5,0-8.62,0.74-12.24,2.2c-4.37,1.77-7.86,4.47-10.36,8.04
		c-2.56,3.65-3.92,8-3.92,12.57c0,3.27,0.65,6.37,1.9,9.14c-1.71,2.53-2.64,5.53-2.64,8.66c0,3.94,1.18,7.8,3.52,11.48
		c2.12,3.34,4.92,6.05,8.32,8.06l0.03,0.02l0.03,0.02c4.32,2.51,9.53,3.79,15.47,3.79c4.89,0,9.34-0.89,13.22-2.66
		c4.43-2.02,7.93-4.97,10.4-8.79c2.47-3.83,3.73-8.14,3.73-12.81c0-3.87-0.8-7.39-2.38-10.44c-0.23-0.44-0.47-0.88-0.73-1.3
		c0.94-2.03,1.42-4.23,1.42-6.53c0-2.87-0.68-5.7-2.02-8.43c-1.25-2.54-3.09-4.86-5.48-6.9c-2.3-1.96-5.07-3.5-8.24-4.58
		C717.41,291.56,714.04,291.04,710.36,291.04L710.36,291.04z"/>
</g>
<g>
	<path class="st1" d="M132.95,334.05l-11.73,1.37c-1.69,0.2-2.95-0.04-3.76-0.72c-0.81-0.68-1.32-1.84-1.51-3.5l-3.36-28.86
		c-0.2-1.69,0.03-2.95,0.69-3.78c0.66-0.83,1.81-1.34,3.47-1.53l12.44-1.45c1.83-0.21,3.43-0.28,4.81-0.21
		c1.37,0.07,2.63,0.37,3.77,0.89c0.97,0.44,1.85,1.03,2.65,1.78c0.79,0.75,1.43,1.6,1.92,2.56c0.48,0.96,0.79,2,0.92,3.12
		c0.45,3.84-1.15,6.88-4.78,9.1c5.23,1.02,8.12,3.85,8.66,8.49c0.25,2.15-0.07,4.15-0.97,5.99c-0.9,1.85-2.24,3.29-4.01,4.33
		c-1.11,0.63-2.42,1.13-3.91,1.5C136.73,333.51,134.97,333.81,132.95,334.05z M120.48,302.5l1.16,9.93l7.12-0.83
		c1.94-0.23,3.41-0.58,4.43-1.07c1.01-0.49,1.74-1.28,2.18-2.38c0.35-0.78,0.47-1.63,0.37-2.54c-0.23-1.94-1.07-3.14-2.52-3.62
		c-1.45-0.48-3.59-0.55-6.42-0.22L120.48,302.5z M130.38,317.07l-8.09,0.94l1.31,11.21l8.35-0.97c5.25-0.61,7.66-2.81,7.22-6.6
		c-0.23-1.94-1.07-3.26-2.53-3.98C135.17,316.95,133.09,316.75,130.38,317.07z"/>
</g>
<g>
	<path class="st1" d="M181.31,304.85l-17.61,1.04l0.56,9.48l16.21-0.96c1.19-0.07,2.1,0.14,2.72,0.64c0.62,0.5,0.96,1.19,1.01,2.07
		c0.05,0.88-0.2,1.61-0.74,2.2s-1.42,0.92-2.64,0.99l-16.21,0.96l0.65,10.98l18.21-1.08c1.23-0.07,2.17,0.16,2.83,0.69
		c0.66,0.53,1.01,1.27,1.07,2.22c0.05,0.91-0.21,1.67-0.8,2.28c-0.59,0.61-1.5,0.95-2.73,1.02l-21.24,1.26
		c-1.7,0.1-2.95-0.2-3.74-0.91c-0.79-0.71-1.24-1.91-1.34-3.59l-1.72-29.01c-0.07-1.12,0.05-2.05,0.34-2.78
		c0.29-0.73,0.78-1.28,1.47-1.65c0.69-0.37,1.59-0.58,2.7-0.65l20.64-1.22c1.25-0.07,2.19,0.15,2.83,0.66
		c0.64,0.52,0.98,1.22,1.04,2.12c0.05,0.91-0.21,1.66-0.78,2.25C183.46,304.44,182.56,304.77,181.31,304.85z"/>
</g>
<g>
	<path class="st1" d="M220.71,320.71c-0.43,2.3-1.4,4.26-2.92,5.87c-1.52,1.61-3.52,2.73-6,3.34s-5.28,0.63-8.4,0.05
		c-3.75-0.69-6.71-1.98-8.89-3.84c-1.54-1.34-2.69-2.96-3.46-4.86c-0.77-1.9-1-3.66-0.7-5.26c0.17-0.93,0.64-1.67,1.42-2.22
		c0.77-0.54,1.66-0.73,2.66-0.54c0.81,0.15,1.45,0.54,1.92,1.16c0.47,0.62,0.8,1.48,1.01,2.57c0.26,1.3,0.6,2.41,1.01,3.32
		c0.41,0.92,1.08,1.73,2,2.45c0.92,0.72,2.21,1.23,3.87,1.53c2.28,0.42,4.23,0.23,5.86-0.56s2.58-1.99,2.88-3.58
		c0.23-1.26,0.04-2.36-0.58-3.29c-0.62-0.93-1.51-1.71-2.65-2.35c-1.14-0.64-2.69-1.38-4.64-2.23c-2.61-1.14-4.76-2.32-6.44-3.51
		c-1.68-1.2-2.93-2.63-3.73-4.31c-0.81-1.68-1.01-3.61-0.6-5.81c0.39-2.09,1.3-3.84,2.74-5.26c1.44-1.41,3.32-2.36,5.65-2.83
		c2.32-0.47,4.94-0.44,7.86,0.1c2.33,0.43,4.3,1.1,5.89,1.99c1.59,0.89,2.87,1.93,3.81,3.09c0.95,1.17,1.58,2.33,1.9,3.48
		c0.32,1.15,0.39,2.23,0.21,3.23c-0.17,0.92-0.65,1.68-1.43,2.3c-0.78,0.62-1.66,0.83-2.63,0.65c-0.88-0.16-1.51-0.51-1.89-1.03
		c-0.38-0.53-0.74-1.34-1.09-2.44c-0.43-1.56-1.05-2.84-1.87-3.82c-0.82-0.98-2.3-1.67-4.44-2.07c-1.99-0.37-3.67-0.23-5.05,0.42
		c-1.38,0.65-2.18,1.58-2.41,2.81c-0.14,0.76-0.06,1.46,0.26,2.09c0.31,0.63,0.79,1.21,1.45,1.74c0.65,0.53,1.33,0.98,2.03,1.34
		c0.7,0.36,1.87,0.92,3.5,1.67c2.05,0.9,3.89,1.81,5.51,2.74c1.62,0.93,2.97,1.93,4.03,3.02c1.06,1.09,1.81,2.36,2.24,3.81
		C221.02,317.11,221.07,318.79,220.71,320.71z"/>
</g>
<g>
	<path class="st1" d="M256.89,309.6l-8.39-1.6l-5.26,27.58c-0.3,1.59-0.88,2.7-1.74,3.33c-0.85,0.63-1.84,0.84-2.97,0.63
		c-1.14-0.22-1.99-0.78-2.56-1.7c-0.57-0.91-0.7-2.16-0.4-3.73l5.26-27.58l-8.39-1.6c-1.31-0.25-2.23-0.73-2.76-1.43
		c-0.53-0.7-0.7-1.53-0.52-2.47c0.19-0.98,0.67-1.7,1.44-2.14c0.77-0.44,1.79-0.54,3.05-0.3l24.45,4.66
		c1.33,0.25,2.26,0.74,2.8,1.45c0.54,0.71,0.71,1.54,0.53,2.49c-0.18,0.95-0.65,1.65-1.42,2.1
		C259.24,309.75,258.2,309.85,256.89,309.6z"/>
</g>
<g>
	<path class="st1" d="M315.52,300.22l-15.1,3.17l2.03,9.68l12.62-2.65c1.17-0.25,2.1-0.17,2.78,0.24c0.69,0.4,1.12,1.04,1.31,1.92
		c0.18,0.88,0.04,1.64-0.44,2.27c-0.48,0.64-1.29,1.08-2.44,1.32l-12.62,2.65l2.61,12.46c0.33,1.58,0.22,2.83-0.33,3.75
		c-0.55,0.91-1.39,1.49-2.51,1.72c-1.14,0.24-2.14,0.05-3.02-0.58c-0.88-0.62-1.48-1.72-1.81-3.28l-6.11-29.11
		c-0.23-1.1-0.26-2.03-0.08-2.8c0.18-0.77,0.59-1.38,1.22-1.84c0.63-0.46,1.49-0.81,2.57-1.04l18.06-3.79
		c1.22-0.26,2.19-0.18,2.89,0.24c0.71,0.42,1.15,1.06,1.34,1.94c0.19,0.89,0.04,1.68-0.44,2.34
		C317.59,299.5,316.74,299.96,315.52,300.22z"/>
</g>
<g>
	<path class="st1" d="M337.12,314.33l-2.73-0.27l-1.24,12.36c-0.16,1.63-0.64,2.79-1.44,3.49c-0.79,0.7-1.77,0.99-2.92,0.87
		c-1.24-0.12-2.16-0.62-2.77-1.5c-0.6-0.87-0.82-2.09-0.67-3.64l2.96-29.59c0.17-1.68,0.67-2.86,1.49-3.53
		c0.83-0.68,2.08-0.93,3.76-0.76l12.67,1.27c1.75,0.18,3.24,0.4,4.46,0.67c1.23,0.27,2.32,0.69,3.27,1.24
		c1.16,0.63,2.15,1.46,2.98,2.5c0.83,1.04,1.43,2.21,1.78,3.5c0.36,1.3,0.46,2.65,0.32,4.05c-0.29,2.87-1.33,5.08-3.11,6.63
		c-1.79,1.55-4.36,2.52-7.72,2.91c1.31,0.87,2.52,2.09,3.64,3.65c1.12,1.56,2.09,3.2,2.91,4.92c0.83,1.72,1.45,3.25,1.87,4.61
		c0.42,1.36,0.61,2.28,0.56,2.77c-0.05,0.51-0.26,0.99-0.64,1.46c-0.37,0.47-0.85,0.82-1.44,1.05c-0.59,0.23-1.25,0.31-1.98,0.24
		c-0.88-0.09-1.59-0.37-2.14-0.84c-0.55-0.47-1.01-1.04-1.38-1.71c-0.37-0.67-0.85-1.66-1.47-2.96l-2.6-5.51
		c-0.93-2.02-1.79-3.57-2.57-4.66c-0.78-1.09-1.61-1.86-2.48-2.32C339.63,314.77,338.5,314.47,337.12,314.33z M343.2,298.62
		l-7.19-0.72l-1.06,10.57l6.98,0.7c1.87,0.19,3.46,0.18,4.77-0.01c1.31-0.2,2.34-0.65,3.09-1.36c0.75-0.71,1.2-1.75,1.33-3.11
		c0.11-1.07-0.07-2.03-0.53-2.9c-0.46-0.87-1.15-1.55-2.07-2.05C347.64,299.26,345.87,298.89,343.2,298.62z"/>
</g>
<g>
	<path class="st1" d="M367.04,338.28v-30.45c0-1.58,0.36-2.77,1.08-3.56c0.72-0.79,1.65-1.19,2.79-1.19c1.18,0,2.13,0.39,2.86,1.17
		c0.73,0.78,1.09,1.97,1.09,3.57v30.45c0,1.6-0.37,2.79-1.09,3.59c-0.73,0.79-1.68,1.19-2.86,1.19c-1.13,0-2.05-0.4-2.78-1.2
		C367.4,341.06,367.04,339.87,367.04,338.28z"/>
</g>
<g>
	<path class="st1" d="M409.22,303.67l-17.31,3.4l1.83,9.31l15.94-3.13c1.17-0.23,2.1-0.14,2.78,0.27c0.68,0.41,1.11,1.05,1.28,1.91
		c0.17,0.86,0.02,1.62-0.44,2.28c-0.46,0.66-1.29,1.1-2.48,1.33l-15.94,3.13l2.12,10.79l17.9-3.51c1.21-0.24,2.17-0.13,2.89,0.31
		c0.72,0.44,1.17,1.13,1.36,2.06c0.18,0.9,0.01,1.69-0.49,2.37c-0.5,0.68-1.36,1.14-2.56,1.38l-20.88,4.1
		c-1.67,0.33-2.95,0.19-3.83-0.4c-0.88-0.6-1.48-1.72-1.81-3.38l-5.6-28.51c-0.22-1.1-0.23-2.04-0.04-2.8
		c0.19-0.76,0.6-1.37,1.24-1.83c0.64-0.46,1.5-0.79,2.58-1l20.29-3.98c1.22-0.24,2.19-0.15,2.89,0.28s1.14,1.08,1.31,1.96
		c0.18,0.9,0.02,1.68-0.47,2.34C411.31,302.98,410.45,303.43,409.22,303.67z"/>
</g>
<g>
	<path class="st1" d="M436.65,296.52l12,24.53l2.96-22.8c0.19-1.48,0.65-2.55,1.39-3.21c0.73-0.66,1.64-0.92,2.72-0.78
		c1.12,0.14,1.95,0.63,2.5,1.45c0.55,0.82,0.73,1.98,0.53,3.46l-3.91,30.15c-0.44,3.36-2.05,4.87-4.84,4.5
		c-0.7-0.09-1.31-0.27-1.84-0.55c-0.53-0.27-1.01-0.66-1.45-1.16c-0.43-0.5-0.82-1.07-1.16-1.71c-0.34-0.64-0.68-1.29-1.02-1.95
		l-11.67-24.22l-2.92,22.46c-0.19,1.46-0.67,2.53-1.45,3.19s-1.7,0.92-2.76,0.79c-1.1-0.14-1.93-0.64-2.49-1.48
		c-0.56-0.84-0.75-1.99-0.56-3.44l3.84-29.57c0.16-1.26,0.43-2.22,0.8-2.9c0.43-0.74,1.06-1.31,1.9-1.71
		c0.83-0.4,1.69-0.54,2.58-0.42c0.7,0.09,1.28,0.28,1.75,0.57c0.47,0.29,0.86,0.65,1.19,1.08c0.33,0.43,0.64,0.98,0.96,1.64
		C435.99,295.12,436.31,295.8,436.65,296.52z"/>
</g>
<g>
	<path class="st1" d="M468.92,299.81l10.18-0.75c2.65-0.19,4.94-0.11,6.86,0.24c1.93,0.35,3.71,1.15,5.36,2.38
		c4.27,3.14,6.66,8.22,7.17,15.23c0.17,2.31,0.12,4.44-0.14,6.38c-0.26,1.94-0.76,3.71-1.49,5.3c-0.73,1.6-1.71,3.05-2.93,4.35
		c-0.97,1.01-2.04,1.83-3.23,2.48c-1.19,0.65-2.48,1.14-3.87,1.47c-1.39,0.33-2.98,0.56-4.75,0.69l-10.18,0.75
		c-1.42,0.1-2.51-0.03-3.26-0.41c-0.75-0.38-1.26-0.95-1.54-1.71c-0.28-0.76-0.46-1.77-0.55-3.01l-2.07-28.27
		c-0.12-1.68,0.16-2.93,0.86-3.74C466.05,300.4,467.24,299.93,468.92,299.81z M472.4,305.77l1.92,26.17l5.92-0.43
		c1.3-0.1,2.31-0.2,3.04-0.33c0.73-0.12,1.48-0.36,2.25-0.69c0.77-0.34,1.42-0.78,1.96-1.33c2.45-2.4,3.48-6.3,3.08-11.7
		c-0.28-3.8-1.06-6.61-2.35-8.42c-1.29-1.81-2.79-2.91-4.51-3.3c-1.72-0.39-3.77-0.5-6.16-0.33L472.4,305.77z"/>
</g>
<g>
	<path class="st1" d="M535.09,324.98c-0.25,2.32-1.07,4.35-2.47,6.07c-1.4,1.72-3.3,2.99-5.72,3.79c-2.42,0.8-5.21,1.03-8.37,0.69
		c-3.79-0.41-6.84-1.46-9.16-3.15c-1.64-1.22-2.91-2.75-3.82-4.59c-0.91-1.84-1.27-3.57-1.1-5.2c0.1-0.94,0.52-1.72,1.24-2.32
		c0.73-0.6,1.6-0.85,2.61-0.74c0.82,0.09,1.49,0.42,2,1.01s0.91,1.41,1.21,2.49c0.36,1.28,0.78,2.35,1.26,3.24
		c0.48,0.88,1.21,1.65,2.18,2.29c0.97,0.64,2.3,1.05,3.98,1.23c2.31,0.25,4.24-0.09,5.8-1.01c1.56-0.92,2.42-2.18,2.59-3.79
		c0.14-1.28-0.14-2.35-0.83-3.23c-0.69-0.88-1.63-1.59-2.82-2.14c-1.19-0.55-2.79-1.17-4.8-1.87c-2.69-0.94-4.92-1.95-6.69-3.01
		c-1.77-1.06-3.12-2.4-4.05-4.01c-0.93-1.61-1.28-3.53-1.04-5.75c0.23-2.11,1-3.93,2.33-5.45c1.33-1.52,3.13-2.6,5.41-3.25
		c2.28-0.65,4.9-0.82,7.85-0.5c2.36,0.25,4.37,0.76,6.03,1.53c1.66,0.77,3.01,1.7,4.04,2.79c1.03,1.09,1.75,2.2,2.16,3.32
		c0.41,1.12,0.56,2.19,0.45,3.2c-0.1,0.93-0.52,1.73-1.25,2.4c-0.74,0.67-1.59,0.96-2.57,0.85c-0.89-0.1-1.55-0.39-1.96-0.89
		c-0.42-0.5-0.84-1.28-1.27-2.35c-0.54-1.53-1.26-2.75-2.15-3.66c-0.89-0.92-2.42-1.49-4.59-1.72c-2.01-0.22-3.68,0.05-5,0.8
		c-1.33,0.75-2.06,1.75-2.19,2.99c-0.08,0.77,0.06,1.46,0.42,2.06c0.36,0.6,0.88,1.15,1.58,1.63c0.69,0.48,1.4,0.88,2.13,1.18
		c0.73,0.31,1.93,0.77,3.62,1.39c2.11,0.74,4.02,1.51,5.71,2.31c1.69,0.8,3.11,1.7,4.25,2.71c1.14,1.01,1.98,2.21,2.53,3.63
		C535.13,321.37,535.3,323.04,535.09,324.98z"/>
</g>
<g>
	<path class="st1" d="M604.48,312.53l1.37,7.28c0.18,0.97,0.23,1.76,0.15,2.37c-0.08,0.61-0.33,1.2-0.76,1.77
		c-0.42,0.56-0.99,1.13-1.7,1.72c-2.06,1.68-4.1,3-6.12,3.97s-4.28,1.69-6.78,2.16c-2.92,0.55-5.66,0.6-8.23,0.15
		c-2.57-0.45-4.86-1.37-6.88-2.76c-2.01-1.39-3.7-3.22-5.07-5.49c-1.37-2.27-2.33-4.9-2.9-7.91c-0.56-2.95-0.62-5.74-0.2-8.36
		c0.42-2.62,1.32-4.94,2.71-6.98c1.39-2.03,3.22-3.73,5.51-5.1c2.28-1.37,4.98-2.34,8.09-2.93c2.56-0.48,4.88-0.57,6.98-0.25
		c2.1,0.31,3.86,0.87,5.28,1.68c1.42,0.81,2.55,1.73,3.39,2.77c0.84,1.04,1.34,2.01,1.51,2.91c0.18,0.97-0.02,1.86-0.61,2.68
		c-0.59,0.82-1.38,1.32-2.39,1.51c-0.55,0.1-1.11,0.07-1.67-0.09c-0.56-0.16-1.05-0.45-1.49-0.85c-1.23-1.31-2.24-2.28-3.04-2.92
		c-0.8-0.64-1.81-1.11-3.02-1.42c-1.21-0.31-2.68-0.3-4.41,0.02c-1.78,0.33-3.31,0.94-4.59,1.82c-1.28,0.88-2.31,1.99-3.09,3.34
		s-1.27,2.93-1.47,4.72c-0.21,1.79-0.12,3.72,0.27,5.77c0.84,4.46,2.51,7.69,5,9.71c2.5,2.02,5.58,2.68,9.24,1.99
		c1.78-0.33,3.41-0.88,4.88-1.64s2.94-1.72,4.38-2.89l-1.16-6.17l-5.96,1.12c-1.43,0.27-2.56,0.26-3.37-0.04
		c-0.82-0.29-1.32-0.96-1.52-2c-0.16-0.85,0.02-1.6,0.53-2.27c0.51-0.67,1.29-1.1,2.34-1.3l8.73-1.64c1.07-0.2,2-0.28,2.77-0.23
		c0.78,0.05,1.46,0.36,2.04,0.93C603.82,310.28,604.23,311.22,604.48,312.53z"/>
</g>
<g>
	<path class="st1" d="M614.31,325.74l-2.43-30.36c-0.13-1.58,0.14-2.79,0.79-3.63c0.66-0.85,1.55-1.31,2.69-1.41
		c1.17-0.09,2.16,0.22,2.94,0.94c0.79,0.72,1.25,1.88,1.38,3.47l2.43,30.36c0.13,1.59-0.14,2.82-0.81,3.66
		c-0.66,0.85-1.58,1.32-2.76,1.41c-1.12,0.09-2.08-0.23-2.87-0.97C614.9,328.48,614.44,327.32,614.31,325.74z"/>
</g>
<g>
	<path class="st1" d="M655.03,304.34l-15.32,1.8l1.15,9.82l12.81-1.5c1.19-0.14,2.1,0.02,2.75,0.49c0.65,0.46,1.02,1.14,1.13,2.03
		c0.1,0.89-0.11,1.63-0.64,2.23c-0.53,0.59-1.38,0.96-2.55,1.1l-12.81,1.5l1.48,12.65c0.19,1.61-0.03,2.84-0.67,3.7
		c-0.63,0.86-1.52,1.36-2.65,1.49c-1.15,0.14-2.14-0.15-2.95-0.85c-0.82-0.7-1.32-1.85-1.5-3.43l-3.46-29.54
		c-0.13-1.12-0.07-2.05,0.18-2.79s0.71-1.32,1.38-1.73c0.67-0.41,1.55-0.67,2.65-0.8l18.33-2.15c1.24-0.15,2.19,0.02,2.86,0.5
		c0.67,0.48,1.05,1.16,1.16,2.05c0.11,0.91-0.11,1.67-0.65,2.29C657.16,303.82,656.27,304.2,655.03,304.34z"/>
</g>
<g>
	<path class="st1" d="M692.84,298.2l-8.44-1.35l-4.44,27.73c-0.26,1.6-0.8,2.72-1.64,3.38s-1.82,0.9-2.95,0.72
		c-1.15-0.18-2.02-0.72-2.61-1.62s-0.77-2.13-0.51-3.71l4.44-27.73l-8.44-1.35c-1.32-0.21-2.25-0.66-2.8-1.34
		c-0.55-0.68-0.75-1.5-0.59-2.46c0.16-0.99,0.62-1.72,1.38-2.18c0.76-0.47,1.77-0.6,3.04-0.39l24.58,3.94
		c1.34,0.21,2.28,0.67,2.84,1.36c0.56,0.69,0.76,1.52,0.6,2.47c-0.15,0.95-0.61,1.67-1.36,2.15
		C695.19,298.28,694.16,298.41,692.84,298.2z"/>
</g>
<g>
	<path class="st1" d="M725.81,330.76c0,2.34-0.6,4.44-1.81,6.3c-1.2,1.86-2.97,3.32-5.29,4.38s-5.07,1.58-8.25,1.58
		c-3.81,0-6.96-0.72-9.44-2.16c-1.76-1.04-3.19-2.42-4.29-4.15c-1.1-1.73-1.65-3.41-1.65-5.05c0-0.95,0.33-1.76,0.99-2.44
		c0.66-0.68,1.5-1.02,2.52-1.02c0.83,0,1.52,0.26,2.1,0.79s1.06,1.31,1.46,2.35c0.49,1.23,1.02,2.26,1.59,3.08
		c0.57,0.83,1.38,1.51,2.41,2.04c1.04,0.54,2.4,0.8,4.09,0.8c2.32,0,4.21-0.54,5.66-1.62c1.45-1.08,2.17-2.43,2.17-4.05
		c0-1.28-0.39-2.32-1.17-3.12c-0.78-0.8-1.79-1.41-3.03-1.83c-1.24-0.42-2.9-0.87-4.97-1.34c-2.78-0.65-5.1-1.41-6.97-2.28
		c-1.87-0.87-3.36-2.06-4.46-3.56s-1.65-3.37-1.65-5.6c0-2.13,0.58-4.02,1.74-5.67c1.16-1.65,2.84-2.92,5.04-3.81
		c2.2-0.89,4.78-1.33,7.75-1.33c2.37,0,4.42,0.29,6.16,0.88c1.73,0.59,3.17,1.37,4.31,2.35s1.98,2,2.5,3.07
		c0.53,1.07,0.79,2.12,0.79,3.14c0,0.93-0.33,1.77-0.99,2.52c-0.66,0.75-1.48,1.12-2.47,1.12c-0.9,0-1.58-0.22-2.04-0.67
		s-0.97-1.18-1.52-2.2c-0.7-1.46-1.55-2.6-2.53-3.41s-2.57-1.23-4.75-1.23c-2.02,0-3.65,0.44-4.89,1.33
		c-1.24,0.89-1.86,1.96-1.86,3.2c0,0.77,0.21,1.44,0.63,2c0.42,0.56,1,1.05,1.74,1.45c0.74,0.4,1.49,0.72,2.24,0.95
		c0.76,0.23,2,0.56,3.74,1c2.18,0.51,4.15,1.07,5.92,1.69c1.77,0.62,3.27,1.36,4.51,2.24c1.24,0.88,2.21,1.99,2.9,3.34
		C725.47,327.16,725.81,328.8,725.81,330.76z"/>
</g>
<path class="st2" d="M543.23,337.12c1.91-0.59,3.55-0.76,4.91-0.52c3.26,0.53,5.5,1.84,6.71,3.91c1.36,2.33,0.97,4.65-1.17,6.94
	c-1.33,1.3-2.22,1.56-2.68,0.78c-0.23-0.39-0.18-0.76,0.13-1.12c0.29-0.69,0.17-1.49-0.36-2.4c-0.83-1.43-2.39-2.6-4.67-3.54
	c-1.81-1.03-4.22-1.28-7.21-0.75"/>
<path class="st2" d="M292.31,340.36c-1.82-0.36-3.87-0.44-6.15-0.25c-2.28,0.19-4.14,0.65-5.56,1.38c0.27,0.23,0.59,0.64,0.95,1.23
	c1.24,2.04,1.25,4.24,0.01,6.59c-0.75,1.39-1.55,2.44-2.38,3.15c-0.84,0.71-1.64,1.3-2.42,1.77c-0.91,0.69-1.74,1.79-2.48,3.31
	c-0.74,1.52-0.53,2.79,0.63,3.82l-0.15,0.09c-0.58,0.36-1.34,0.21-2.26-0.42c-0.65-0.41-1.21-1-1.68-1.78
	c-1.01-1.65-1.55-3.86-1.63-6.61c-0.08-2.75,0.27-5.03,1.04-6.83c0.9-2.02,2.13-3.5,3.69-4.45c0.88-0.53,1.8-0.83,2.76-0.88
	c0.97-0.06,1.76-0.01,2.39,0.15l0.23,0.06c1.2-0.87,2.59-1.45,4.15-1.73c1.56-0.28,3-0.43,4.33-0.44"/>
<path class="st3" d="M772.26,315.08c0.23,0.17,0.23,0.43,0,0.77c-0.11,0.23-0.17,0.51-0.17,0.85c0,0.8,0.4,1.48,1.2,2.05
	c0.8,0.57,1.65,0.85,2.56,0.85c0.8-0.23,1.51-0.48,2.13-0.77c0.62-0.28,1.17-0.6,1.62-0.94c2.16-2.85,3.24-6.09,3.24-9.74
	c0-4.21-1.57-8.37-4.7-12.47c-3.13-4.1-7.89-7.23-14.26-9.39l-1.02-0.34c1.02,0.57,1.99,1.43,2.9,2.56
	c1.02,1.37,1.54,2.85,1.54,4.44c0,2.85-1.54,4.38-4.61,4.61c-0.91,0-1.54-0.23-1.88-0.68c-0.34-0.45-0.17-0.8,0.51-1.03
	c1.03-0.34,1.54-1.25,1.54-2.73c0-0.91-0.29-2.05-0.85-3.42c-0.34-0.91-1.05-1.88-2.14-2.9c-1.08-1.03-2.25-1.76-3.5-2.22
	c-0.57-0.11-1.2-0.17-1.88-0.17c-0.68,0-1.31,0-1.88,0c-5.47,0-10.48,1.26-15.03,3.76c-4.56,2.51-8.31,5.78-11.27,9.82l-5.38-2.99
	c3.25-4.1,7.35-7.4,12.3-9.91c4.95-2.5,10.5-3.76,16.65-3.76c4.67,0,9.62,0.85,14.86,2.56c6.6,2.16,11.61,5.41,15.03,9.73
	c3.42,4.33,5.12,8.83,5.12,13.49c0,4.56-1.43,8.49-4.27,11.79c0.34,1.14,0.2,2.42-0.43,3.84c-0.63,1.43-1.85,2.54-3.67,3.33
	c-0.8,0.34-1.82,0.51-3.07,0.51c-2.62,0-5.18-0.57-7.69-1.71c-0.34-0.11-0.68-0.2-1.03-0.26c-0.34-0.06-0.68-0.08-1.02-0.08
	c-0.8,0-1.57,0.11-2.31,0.34c-0.74,0.23-1.22,0.63-1.45,1.2c-0.23,0.46-0.43,0.83-0.6,1.11c-0.17,0.29-0.37,0.2-0.6-0.26
	c-0.23-0.68-0.34-1.2-0.34-1.54c0-1.48,0.68-2.73,2.05-3.76c1.48-1.14,3.27-1.88,5.38-2.22c2.11-0.34,3.67-0.4,4.7-0.17
	c0.11,0.12,0.34,0.17,0.68,0.17c-0.57-0.57-0.85-1.25-0.85-2.05c0-1.03,0.34-1.76,1.02-2.22"/>
<path class="st3" d="M737,338.89c2.39-0.34,4.44-0.06,6.15,0.85c1.02-0.91,2.51-1.37,4.44-1.37c1.25,0,2.59,0.29,4.01,0.85
	c1.43,0.57,2.76,1.48,4.01,2.73c1.37,1.48,2.56,3.53,3.59,6.15c1.02,2.62,1.54,5.12,1.54,7.52c0,1.94-0.4,3.47-1.2,4.61
	c-0.57,0.68-1.08,1.11-1.54,1.28c-0.45,0.17-0.8,0.26-1.02,0.26h-0.17c0.34-0.57,0.51-1.14,0.51-1.71c0-1.37-0.68-2.59-2.05-3.67
	c-1.37-1.08-2.62-1.79-3.76-2.14c-1.03-0.23-2.16-0.57-3.42-1.02c-1.25-0.45-2.56-1.31-3.93-2.56c-2.05-1.71-3.07-3.87-3.07-6.49
	c0-1.14,0.34-2.22,1.02-3.24c-0.34-0.23-0.71-0.34-1.11-0.34c-0.4,0-0.82,0-1.28,0c-0.68,0-1.39,0.06-2.13,0.17
	c-0.74,0.11-1.45,0.34-2.14,0.68"/>
<path class="st3" d="M112.85,338.22c-6.46,3.15-12.54,4.28-18.22,3.37c-5.68-0.9-10.41-2.38-14.2-4.44
	c-1.16-0.4-2.39-0.59-3.68-0.57c-1.29,0.02-2.65,0.24-4.07,0.67c0.39,1.99-0.12,3.8-1.53,5.44c-1.04,1.21-2.26,2.11-3.67,2.7
	c-0.85,0.47-2.35,0.68-4.49,0.64c-2.14-0.04-4.16,0.17-6.07,0.64c-1.99,0.39-3.54,1.24-4.65,2.53c-1.04,1.21-1.5,2.62-1.38,4.22
	c-0.32,0.03-0.61-0.07-0.87-0.3c-0.43-0.37-0.72-0.99-0.87-1.87c-0.21-1.68,0.15-3.66,1.07-5.96c0.92-2.29,2.23-4.43,3.94-6.41
	c1.93-2.25,4.06-3.94,6.4-5.09c2.19-0.97,4.22-1.33,6.1-1.07c1.88,0.26,3.38,0.88,4.5,1.84c0.43,0.37,0.74,0.71,0.92,1.02
	c1.33-0.5,2.89-0.74,4.67-0.72c-0.43-0.37-0.82-0.66-1.16-0.88c-0.34-0.21-0.68-0.47-1.03-0.77c-2.93-2.52-4.97-5.62-6.09-9.29
	c-1.12-3.67-1.45-7.4-0.97-11.19c0.48-3.79,1.58-7.12,3.3-10c-0.1-0.23-0.21-0.41-0.34-0.52c-0.13-0.11-0.2-0.25-0.21-0.41
	c-1.93-4.21-1.27-8.22,2-12.02c1.56-1.81,3.67-3.3,6.32-4.47c2.66-1.17,5.57-1.67,8.73-1.51c2.83,0.03,5.02-0.86,6.58-2.68
	c0.52-0.6,0.8-1.19,0.84-1.76c0.11-1.7,0.43-2.33,0.95-1.89c1.21,1.04,1.87,2.54,1.98,4.51c0.11,1.97-0.27,3.63-1.14,4.99
	c-0.21,0.42-0.45,0.78-0.7,1.08c-0.26,0.3-0.54,0.63-0.84,0.97c-1.86,2.16-3.84,3.72-5.94,4.69c-2.11,0.97-4.19,1.77-6.24,2.41
	c0.67,0.27,1.17,0.56,1.52,0.85c0.78,0.67,1.33,1.51,1.65,2.54c0.32,1.03,0.27,1.96-0.15,2.8L85.24,303
	c-0.45,0.52-0.75,0.7-0.93,0.55c-0.26-0.22-0.26-0.75,0-1.57c0.19-0.74-0.02-1.37-0.63-1.89c-0.95-0.82-2.32-1.24-4.09-1.27
	c-1.78-0.03-3.14,0.16-4.08,0.55c-0.77,0.54-1.37,1.07-1.82,1.59c-0.44,0.52-0.73,0.94-0.87,1.28c-1.35,2.45-2.18,5.41-2.48,8.91
	c-0.3,3.5,0.08,6.94,1.14,10.33c1.07,3.39,2.98,6.28,5.74,8.65c1.38,1.19,2.75,2.22,4.11,3.08c1.36,0.87,2.75,1.69,4.18,2.47
	c-0.54-0.76-0.91-1.6-1.1-2.52c-0.19-0.91-0.12-1.83,0.22-2.74c0.05-0.41,0.2-0.76,0.47-1.06c0.26-0.3,0.54-0.63,0.84-0.97
	c1.71-1.99,3.05-2.93,4.02-2.85c0.79-0.22,1.17-0.27,1.14-0.15c-0.03,0.12,0.04,0.34,0.23,0.65c-0.31,0.19-0.69,0.54-1.13,1.05
	c-1.11,1.3-1.88,2.93-2.29,4.9c-0.42,1.97-0.11,3.4,0.93,4.29l1.3,1.11c3.79,1.01,7.63,1.3,11.51,0.89
	c3.89-0.41,7.58-1.44,11.09-3.08"/>
<path class="st2" d="M491.08,288.83c1.68-4.1,2.19-8.22,1.52-12.38c-0.67-4.15-2.75-7.49-6.25-10.01c-0.98-0.71-2.07-1.33-3.27-1.88
	c-1.2-0.55-2.59-0.97-4.19-1.27c-0.07,0.69-0.18,1.46-0.32,2.32c-0.14,0.85-0.71,1.83-1.71,2.91c-0.78,0.93-1.84,1.38-3.21,1.35
	c-1.36-0.03-2.71-0.52-4.03-1.48c-0.77-0.55-1.5-1.24-2.18-2.06c-0.55-0.71-1.28-1.54-2.2-2.47c-0.92-0.93-1.91-1.77-2.95-2.53
	c-1.12-0.81-2.26-1.39-3.43-1.76c-1.17-0.37-2.28-0.18-3.34,0.54c0.03-0.19,0.2-0.49,0.5-0.91c1.11-1.54,2.65-2.71,4.62-3.52
	c2.02-0.88,4.16-1.57,6.43-2.06c2.27-0.49,4.44-0.67,6.53-0.55c2.09,0.13,3.76,0.64,5.02,1.55c0.49,0.35,0.9,0.81,1.24,1.37
	c0.82,1.23,1.04,2.4,0.66,3.5c-0.38,1.11-0.78,2.04-1.22,2.79c3.32,0.7,6.17,1.9,8.55,3.62c3.63,2.62,5.87,6.04,6.7,10.26
	c0.83,4.22,0.35,8.45-1.12,12.7c-0.11,0.45-0.27,0.89-0.48,1.33"/>
</svg>
